<svg width="48" height="48" viewBox="0 0 48 48" fill="none" xmlns="http://www.w3.org/2000/svg">
<rect x="0.25" y="0.25" width="47.5" height="47.5" rx="23.75" fill="white"/>
<rect x="0.25" y="0.25" width="47.5" height="47.5" rx="23.75" stroke="#D6D6D6" stroke-width="0.5"/>
<path d="M32.5 27C32.5 27.2761 32.7239 27.5 33 27.5C33.2761 27.5 33.5 27.2761 33.5 27H33H32.5ZM25.5 34.5C25.7761 34.5 26 34.2761 26 34C26 33.7239 25.7761 33.5 25.5 33.5V34V34.5ZM32.1213 16.8787L31.7678 17.2322L32.1213 16.8787ZM15.8787 16.8787L15.5251 16.5251H15.5251L15.8787 16.8787ZM22.5 25.5C22.2239 25.5 22 25.7239 22 26C22 26.2761 22.2239 26.5 22.5 26.5V26V25.5ZM27 26.5C27.2761 26.5 27.5 26.2761 27.5 26C27.5 25.7239 27.2761 25.5 27 25.5V26V26.5ZM19 25.5C18.7239 25.5 18.5 25.7239 18.5 26C18.5 26.2761 18.7239 26.5 19 26.5V26V25.5ZM19.5 26.5C19.7761 26.5 20 26.2761 20 26C20 25.7239 19.7761 25.5 19.5 25.5V26V26.5ZM19 22C18.7239 22 18.5 22.2239 18.5 22.5C18.5 22.7761 18.7239 23 19 23V22.5V22ZM19.5 23C19.7761 23 20 22.7761 20 22.5C20 22.2239 19.7761 22 19.5 22V22.5V23ZM19 29C18.7239 29 18.5 29.2239 18.5 29.5C18.5 29.7761 18.7239 30 19 30V29.5V29ZM19.5 30C19.7761 30 20 29.7761 20 29.5C20 29.2239 19.7761 29 19.5 29V29.5V30ZM22.5 22C22.2239 22 22 22.2239 22 22.5C22 22.7761 22.2239 23 22.5 23V22.5V22ZM29 23C29.2761 23 29.5 22.7761 29.5 22.5C29.5 22.2239 29.2761 22 29 22V22.5V23ZM22.5 29C22.2239 29 22 29.2239 22 29.5C22 29.7761 22.2239 30 22.5 30V29.5V29ZM24.5 30C24.7761 30 25 29.7761 25 29.5C25 29.2239 24.7761 29 24.5 29V29.5V30ZM29.6555 34.5L30.009 34.1465L29.6555 34.5ZM33.5 30.6555L33.8535 30.302L33.5 30.6555ZM30.937 28.0925L30.5834 28.446L30.937 28.0925ZM27.0924 31.937L26.7389 32.2906L27.0924 31.937ZM32.714 29.441C32.751 29.1673 32.5591 28.9155 32.2855 28.8785C32.0118 28.8415 31.76 29.0334 31.723 29.307L32.2185 29.374L32.714 29.441ZM30.7674 31.7677L30.4139 31.4141L30.7674 31.7677ZM28.3432 32.8082C28.0737 32.8681 27.9037 33.1352 27.9636 33.4047C28.0235 33.6743 28.2906 33.8443 28.5602 33.7844L28.4517 33.2963L28.3432 32.8082ZM33 22H32.5V27H33H33.5V22H33ZM25.5 34V33.5H21V34V34.5H25.5V34ZM15 28H15.5V22H15H14.5V28H15ZM21 34V33.5C19.5717 33.5 18.5507 33.4989 17.7748 33.3946C17.0133 33.2922 16.5632 33.0987 16.2322 32.7678L15.8787 33.1213L15.5251 33.4749C16.0729 34.0226 16.7692 34.2684 17.6416 34.3857C18.4996 34.5011 19.5999 34.5 21 34.5V34ZM15 28H14.5C14.5 29.4001 14.4989 30.5004 14.6143 31.3584C14.7316 32.2308 14.9774 32.9272 15.5251 33.4749L15.8787 33.1213L16.2322 32.7678C15.9013 32.4368 15.7078 31.9867 15.6054 31.2252C15.5011 30.4493 15.5 29.4283 15.5 28H15ZM33 22H33.5C33.5 20.5999 33.5011 19.4996 33.3857 18.6416C33.2684 17.7692 33.0226 17.0729 32.4749 16.5251L32.1213 16.8787L31.7678 17.2322C32.0987 17.5632 32.2922 18.0133 32.3946 18.7748C32.4989 19.5507 32.5 20.5717 32.5 22H33ZM15 22H15.5C15.5 20.5717 15.5011 19.5507 15.6054 18.7748C15.7078 18.0133 15.9013 17.5632 16.2322 17.2322L15.8787 16.8787L15.5251 16.5251C14.9774 17.0729 14.7316 17.7692 14.6143 18.6416C14.4989 19.4996 14.5 20.5999 14.5 22H15ZM28 16.0017L27.9972 16.5017C29.0887 16.5078 29.8849 16.5358 30.4978 16.6484C31.0965 16.7583 31.4774 16.9419 31.7678 17.2322L32.1213 16.8787L32.4749 16.5251C31.9969 16.0471 31.4046 15.7982 30.6785 15.6648C29.9666 15.5341 29.0863 15.5078 28.0028 15.5017L28 16.0017ZM20 16.0017L19.9972 15.5017C18.9137 15.5078 18.0334 15.5341 17.3215 15.6648C16.5954 15.7982 16.0031 16.0471 15.5251 16.5251L15.8787 16.8787L16.2322 17.2322C16.5226 16.9419 16.9035 16.7583 17.5022 16.6484C18.1151 16.5358 18.9113 16.5078 20.0028 16.5017L20 16.0017ZM22.5 26V26.5H27V26V25.5H22.5V26ZM19 26V26.5H19.5V26V25.5H19V26ZM19 22.5V23H19.5V22.5V22H19V22.5ZM19 29.5V30H19.5V29.5V29H19V29.5ZM22.5 22.5V23H29V22.5V22H22.5V22.5ZM22.5 29.5V30H24.5V29.5V29H22.5V29.5ZM21.5 14V14.5H26.5V14V13.5H21.5V14ZM28 15.5H27.5V16.5H28H28.5V15.5H28ZM26.5 18V17.5H21.5V18V18.5H26.5V18ZM20 16.5H20.5V15.5H20H19.5V16.5H20ZM21.5 18V17.5C20.9477 17.5 20.5 17.0523 20.5 16.5H20H19.5C19.5 17.6046 20.3954 18.5 21.5 18.5V18ZM28 16.5H27.5C27.5 17.0523 27.0523 17.5 26.5 17.5V18V18.5C27.6046 18.5 28.5 17.6046 28.5 16.5H28ZM26.5 14V14.5C27.0523 14.5 27.5 14.9477 27.5 15.5H28H28.5C28.5 14.3954 27.6046 13.5 26.5 13.5V14ZM21.5 14V13.5C20.3954 13.5 19.5 14.3954 19.5 15.5H20H20.5C20.5 14.9477 20.9477 14.5 21.5 14.5V14ZM30.937 28.0925L30.5834 28.446L33.1464 31.0091L33.5 30.6555L33.8535 30.302L31.2905 27.7389L30.937 28.0925ZM29.6555 34.5L30.009 34.1465L27.446 31.5835L27.0924 31.937L26.7389 32.2906L29.3019 34.8536L29.6555 34.5ZM33.5 34.5L33.1464 34.1465C32.2801 35.0129 30.8754 35.0129 30.009 34.1465L29.6555 34.5L29.3019 34.8536C30.5588 36.1105 32.5966 36.1105 33.8535 34.8536L33.5 34.5ZM33.5 30.6555L33.1464 31.0091C34.0128 31.8754 34.0128 33.2801 33.1464 34.1465L33.5 34.5L33.8535 34.8536C35.1104 33.5967 35.1104 31.5589 33.8535 30.302L33.5 30.6555ZM27.0924 28.0925L27.446 28.446C28.3124 27.5797 29.717 27.5797 30.5834 28.446L30.937 28.0925L31.2905 27.7389C30.0336 26.482 27.9958 26.482 26.7389 27.7389L27.0924 28.0925ZM27.0924 28.0925L26.7389 27.7389C25.482 28.9958 25.482 31.0337 26.7389 32.2906L27.0924 31.937L27.446 31.5835C26.5796 30.7171 26.5796 29.3124 27.446 28.446L27.0924 28.0925ZM32.2185 29.374C31.723 29.307 31.723 29.3068 31.7231 29.3065C31.7231 29.3065 31.7231 29.3062 31.7231 29.3061C31.7232 29.3058 31.7232 29.3055 31.7232 29.3052C31.7233 29.3047 31.7234 29.3043 31.7234 29.3039C31.7235 29.3031 31.7236 29.3025 31.7237 29.3022C31.7238 29.3017 31.7237 29.3021 31.7234 29.3036C31.723 29.3064 31.7218 29.3132 31.7196 29.3238C31.7153 29.3449 31.7072 29.381 31.6935 29.4303C31.6659 29.529 31.6156 29.6811 31.5274 29.8734C31.3514 30.2571 31.0221 30.8058 30.4139 31.4141L30.7674 31.7677L31.121 32.1212C31.8165 31.4257 32.2127 30.7777 32.4363 30.2904C32.5478 30.0473 32.6159 29.8454 32.6567 29.699C32.6771 29.6258 32.6907 29.5666 32.6996 29.523C32.704 29.5012 32.7073 29.4833 32.7096 29.4696C32.7107 29.4627 32.7117 29.4569 32.7124 29.4521C32.7127 29.4497 32.713 29.4476 32.7133 29.4457C32.7134 29.4448 32.7136 29.4439 32.7137 29.4432C32.7137 29.4428 32.7138 29.4424 32.7138 29.442C32.7139 29.4418 32.7139 29.4416 32.7139 29.4415C32.7139 29.4412 32.714 29.441 32.2185 29.374ZM30.7674 31.7677L30.4139 31.4141C29.7982 32.0298 29.26 32.3822 28.8876 32.5785C28.701 32.6768 28.5552 32.7364 28.461 32.7703C28.4138 32.7872 28.3795 32.7978 28.3595 32.8036C28.3494 32.8064 28.3429 32.8081 28.3402 32.8088C28.3388 32.8092 28.3383 32.8093 28.3388 32.8092C28.3391 32.8091 28.3396 32.809 28.3403 32.8088C28.3407 32.8087 28.3411 32.8086 28.3416 32.8085C28.3418 32.8085 28.3421 32.8084 28.3424 32.8084C28.3425 32.8083 28.3427 32.8083 28.3428 32.8083C28.343 32.8082 28.3432 32.8082 28.4517 33.2963C28.5602 33.7844 28.5604 33.7843 28.5606 33.7843C28.5607 33.7842 28.5609 33.7842 28.5611 33.7841C28.5614 33.7841 28.5618 33.784 28.5622 33.7839C28.5629 33.7837 28.5637 33.7836 28.5645 33.7834C28.5663 33.783 28.5682 33.7825 28.5704 33.782C28.5748 33.7809 28.5802 33.7796 28.5866 33.778C28.5993 33.7748 28.6158 33.7704 28.636 33.7646C28.6764 33.7529 28.7313 33.7357 28.7994 33.7112C28.9357 33.6622 29.1243 33.5841 29.3537 33.4632C29.8132 33.2211 30.4329 32.8093 31.121 32.1212L30.7674 31.7677Z" fill="#424242"/>
</svg>
