<svg width="21" height="21" viewBox="0 0 21 21" fill="none" xmlns="http://www.w3.org/2000/svg">
<path d="M5 2.03846C5 2.3146 5.22386 2.53846 5.5 2.53846C5.77614 2.53846 6 2.3146 6 2.03846H5.5H5ZM6 0.5C6 0.223858 5.77614 0 5.5 0C5.22386 0 5 0.223858 5 0.5H5.5H6ZM15 2.03846C15 2.3146 15.2239 2.53846 15.5 2.53846C15.7761 2.53846 16 2.3146 16 2.03846H15.5H15ZM16 0.5C16 0.223858 15.7761 0 15.5 0C15.2239 0 15 0.223858 15 0.5H15.5H16ZM1 6.66667C0.723858 6.66667 0.5 6.89052 0.5 7.16667C0.5 7.44281 0.723858 7.66667 1 7.66667V7.16667V6.66667ZM20 7.66667C20.2761 7.66667 20.5 7.44281 20.5 7.16667C20.5 6.89052 20.2761 6.66667 20 6.66667V7.16667V7.66667ZM7.858 12.4586C7.66523 12.2609 7.34867 12.2569 7.15095 12.4497C6.95323 12.6425 6.94922 12.959 7.142 13.1567L7.5 12.8077L7.858 12.4586ZM9.5 14.859L9.142 15.208C9.23611 15.3045 9.3652 15.359 9.5 15.359C9.6348 15.359 9.76389 15.3045 9.858 15.208L9.5 14.859ZM13.858 11.1055C14.0508 10.9077 14.0468 10.5912 13.8491 10.3984C13.6513 10.2056 13.3348 10.2096 13.142 10.4074L13.5 10.7564L13.858 11.1055ZM8.5 2.03846V2.53846H12.5V2.03846V1.53846H8.5V2.03846ZM20.5 10.2436H20V12.2949H20.5H21V10.2436H20.5ZM12.5 20.5V20H8.5V20.5V21H12.5V20.5ZM0.5 12.2949H1V10.2436H0.5H0V12.2949H0.5ZM8.5 20.5V20C6.59989 20 5.22639 19.9989 4.17921 19.8545C3.14775 19.7123 2.50753 19.4395 2.02957 18.9493L1.67157 19.2984L1.31357 19.6474C2.00719 20.3588 2.89557 20.6869 4.04261 20.8451C5.17395 21.0011 6.62887 21 8.5 21V20.5ZM0.5 12.2949H0C0 14.215 -0.00101036 15.7042 0.150688 16.8615C0.304105 18.0318 0.621674 18.9378 1.31357 19.6474L1.67157 19.2984L2.02957 18.9493C1.5499 18.4574 1.28168 17.7955 1.14221 16.7315C1.00101 15.6544 1 14.2426 1 12.2949H0.5ZM20.5 12.2949H20C20 14.2426 19.999 15.6544 19.8578 16.7315C19.7183 17.7955 19.4501 18.4574 18.9704 18.9493L19.3284 19.2984L19.6864 19.6474C20.3783 18.9378 20.6959 18.0318 20.8493 16.8615C21.001 15.7042 21 14.215 21 12.2949H20.5ZM12.5 20.5V21C14.3711 21 15.826 21.0011 16.9574 20.8451C18.1044 20.6869 18.9928 20.3588 19.6864 19.6474L19.3284 19.2984L18.9704 18.9493C18.4925 19.4395 17.8523 19.7123 16.8208 19.8545C15.7736 19.9989 14.4001 20 12.5 20V20.5ZM12.5 2.03846V2.53846C14.4001 2.53846 15.7736 2.53958 16.8208 2.68398C17.8523 2.82621 18.4925 3.09892 18.9704 3.58912L19.3284 3.24007L19.6864 2.89102C18.9928 2.17962 18.1044 1.85152 16.9574 1.69335C15.826 1.53735 14.3711 1.53846 12.5 1.53846V2.03846ZM20.5 10.2436H21C21 8.32341 21.001 6.83422 20.8493 5.67698C20.6959 4.50662 20.3783 3.60066 19.6864 2.89102L19.3284 3.24007L18.9704 3.58912C19.4501 4.0811 19.7183 4.74294 19.8578 5.80695C19.999 6.88407 20 8.29583 20 10.2436H20.5ZM8.5 2.03846V1.53846C6.62887 1.53846 5.17395 1.53735 4.04261 1.69335C2.89557 1.85152 2.00719 2.17962 1.31357 2.89102L1.67157 3.24007L2.02957 3.58912C2.50753 3.09892 3.14775 2.82621 4.17921 2.68398C5.22639 2.53958 6.59989 2.53846 8.5 2.53846V2.03846ZM0.5 10.2436H1C1 8.29583 1.00101 6.88407 1.14221 5.80695C1.28168 4.74294 1.5499 4.0811 2.02957 3.58912L1.67157 3.24007L1.31357 2.89102C0.621674 3.60066 0.304105 4.50662 0.150688 5.67698C-0.00101036 6.83422 0 8.32341 0 10.2436H0.5ZM5.5 2.03846H6V0.5H5.5H5V2.03846H5.5ZM15.5 2.03846H16V0.5H15.5H15V2.03846H15.5ZM1 7.16667V7.66667H20V7.16667V6.66667H1V7.16667ZM7.5 12.8077L7.142 13.1567L9.142 15.208L9.5 14.859L9.858 14.5099L7.858 12.4586L7.5 12.8077ZM9.5 14.859L9.858 15.208L13.858 11.1055L13.5 10.7564L13.142 10.4074L9.142 14.5099L9.5 14.859Z" fill="#424242"/>
</svg>
