<svg width="21" height="21" viewBox="0 0 21 21" fill="none" xmlns="http://www.w3.org/2000/svg">
<path d="M14 4.5C14 4.77614 14.2239 5 14.5 5C14.7761 5 15 4.77614 15 4.5H14.5H14ZM6 4.5C6 4.77614 6.22386 5 6.5 5C6.77614 5 7 4.77614 7 4.5H6.5H6ZM12 13C12.2761 13 12.5 12.7761 12.5 12.5C12.5 12.2239 12.2761 12 12 12V12.5V13ZM9 12C8.72386 12 8.5 12.2239 8.5 12.5C8.5 12.7761 8.72386 13 9 13V12.5V12ZM11 11C11 10.7239 10.7761 10.5 10.5 10.5C10.2239 10.5 10 10.7239 10 11H10.5H11ZM10 14C10 14.2761 10.2239 14.5 10.5 14.5C10.7761 14.5 11 14.2761 11 14H10.5H10ZM8.5 4.5V5H12.5V4.5V4H8.5V4.5ZM12.5 20.5V20H8.5V20.5V21H12.5V20.5ZM8.5 20.5V20C6.60025 20 5.22573 19.9989 4.17754 19.858C3.14372 19.719 2.50253 19.4523 2.02513 18.9749L1.67157 19.3284L1.31802 19.682C2.01219 20.3762 2.89959 20.6952 4.04429 20.8491C5.17461 21.0011 6.62852 21 8.5 21V20.5ZM0.5 12.5H0C0 14.3715 -0.00106186 15.8254 0.150905 16.9557C0.304806 18.1004 0.623849 18.9878 1.31802 19.682L1.67157 19.3284L2.02513 18.9749C1.54772 18.4975 1.28098 17.8563 1.14199 16.8225C1.00106 15.7743 1 14.3998 1 12.5H0.5ZM20.5 12.5H20C20 14.3998 19.9989 15.7743 19.858 16.8225C19.719 17.8563 19.4523 18.4975 18.9749 18.9749L19.3284 19.3284L19.682 19.682C20.3762 18.9878 20.6952 18.1004 20.8491 16.9557C21.0011 15.8254 21 14.3715 21 12.5H20.5ZM12.5 20.5V21C14.3715 21 15.8254 21.0011 16.9557 20.8491C18.1004 20.6952 18.9878 20.3762 19.682 19.682L19.3284 19.3284L18.9749 18.9749C18.4975 19.4523 17.8563 19.719 16.8225 19.858C15.7743 19.9989 14.3998 20 12.5 20V20.5ZM12.5 4.5V5C14.3998 5 15.7743 5.00106 16.8225 5.14199C17.8563 5.28098 18.4975 5.54772 18.9749 6.02513L19.3284 5.67157L19.682 5.31802C18.9878 4.62385 18.1004 4.30481 16.9557 4.15091C15.8254 3.99894 14.3715 4 12.5 4V4.5ZM20.5 12.5H21C21 10.6285 21.0011 9.17461 20.8491 8.04429C20.6952 6.89959 20.3762 6.01219 19.682 5.31802L19.3284 5.67157L18.9749 6.02513C19.4523 6.50253 19.719 7.14372 19.858 8.17754C19.9989 9.22573 20 10.6002 20 12.5H20.5ZM8.5 4.5V4C6.62852 4 5.17461 3.99894 4.04429 4.15091C2.89959 4.30481 2.01219 4.62385 1.31802 5.31802L1.67157 5.67157L2.02513 6.02513C2.50253 5.54772 3.14373 5.28098 4.17754 5.14199C5.22573 5.00106 6.60025 5 8.5 5V4.5ZM0.5 12.5H1C1 10.6002 1.00106 9.22573 1.14199 8.17754C1.28098 7.14372 1.54772 6.50253 2.02513 6.02513L1.67157 5.67157L1.31802 5.31802C0.623849 6.01219 0.304806 6.89959 0.150905 8.04429C-0.00106186 9.17461 0 10.6285 0 12.5H0.5ZM10.5 0.5V1C11.4569 1 12.1244 1.00106 12.6279 1.06876C13.1171 1.13453 13.3762 1.25483 13.5607 1.43934L13.9142 1.08579L14.2678 0.732233C13.8665 0.330955 13.3612 0.15836 12.7612 0.0776819C12.1755 -0.00106186 11.4287 0 10.5 0V0.5ZM14.5 4.5H15C15 3.57133 15.0011 2.82452 14.9223 2.23883C14.8416 1.63876 14.669 1.13351 14.2678 0.732233L13.9142 1.08579L13.5607 1.43934C13.7452 1.62385 13.8655 1.8829 13.9312 2.37208C13.9989 2.87565 14 3.54306 14 4.5H14.5ZM10.5 0.5V0C9.57133 0 8.82452 -0.00106186 8.23883 0.0776819C7.63876 0.158359 7.13351 0.330955 6.73223 0.732233L7.08579 1.08579L7.43934 1.43934C7.62385 1.25483 7.8829 1.13453 8.37208 1.06876C8.87565 1.00106 9.54306 1 10.5 1V0.5ZM6.5 4.5H7C7 3.54306 7.00106 2.87565 7.06876 2.37208C7.13453 1.8829 7.25483 1.62385 7.43934 1.43934L7.08579 1.08579L6.73223 0.732233C6.33096 1.13351 6.15836 1.63876 6.07768 2.23883C5.99894 2.82452 6 3.57133 6 4.5H6.5ZM12 12.5V12H10.5V12.5V13H12V12.5ZM10.5 12.5V12H9V12.5V13H10.5V12.5ZM10.5 11H10V12.5H10.5H11V11H10.5ZM10.5 12.5H10V14H10.5H11V12.5H10.5ZM14.5 12.5H14C14 14.433 12.433 16 10.5 16V16.5V17C12.9853 17 15 14.9853 15 12.5H14.5ZM10.5 16.5V16C8.567 16 7 14.433 7 12.5H6.5H6C6 14.9853 8.01472 17 10.5 17V16.5ZM6.5 12.5H7C7 10.567 8.567 9 10.5 9V8.5V8C8.01472 8 6 10.0147 6 12.5H6.5ZM10.5 8.5V9C12.433 9 14 10.567 14 12.5H14.5H15C15 10.0147 12.9853 8 10.5 8V8.5Z" fill="#424242"/>
</svg>
