<svg width="21" height="21" viewBox="0 0 21 21" fill="none" xmlns="http://www.w3.org/2000/svg">
<path d="M17.8278 17.6355C17.9026 17.3697 17.7478 17.0935 17.4819 17.0187C17.2161 16.944 16.94 17.0988 16.8652 17.3646L17.3465 17.5001L17.8278 17.6355ZM3.92857 2C4.20471 2 4.42857 1.77614 4.42857 1.5C4.42857 1.22386 4.20471 1 3.92857 1V1.5V2ZM10.7857 1C10.5096 1 10.2857 1.22386 10.2857 1.5C10.2857 1.77614 10.5096 2 10.7857 2V1.5V1ZM14.2026 4.23574L13.7046 4.27979V4.27979L14.2026 4.23574ZM11.4785 1.51166L11.4345 2.00972L11.4785 1.51166ZM3.23574 1.51166L3.1917 1.0136L3.23574 1.51166ZM0.511661 4.23574L1.00972 4.27979L0.511661 4.23574ZM11 0.5C11 0.223858 10.7761 0 10.5 0C10.2239 0 10 0.223858 10 0.5H10.5H11ZM10 2.5C10 2.77614 10.2239 3 10.5 3C10.7761 3 11 2.77614 11 2.5H10.5H10ZM5 0.5C5 0.223858 4.77614 0 4.5 0C4.22386 0 4 0.223858 4 0.5H4.5H5ZM4 2.5C4 2.77614 4.22386 3 4.5 3C4.77614 3 5 2.77614 5 2.5H4.5H4ZM7.5 12.7354H7V15.5001H7.5H8V12.7354H7.5ZM12.5 20.5001V21.0001H13.3824V20.5001V20.0001H12.5V20.5001ZM7.5 15.5001H7C7 18.5376 9.46243 21.0001 12.5 21.0001V20.5001V20.0001C10.0147 20.0001 8 17.9853 8 15.5001H7.5ZM13.3824 20.5001V21.0001C15.4989 21.0001 17.2817 19.5765 17.8278 17.6355L17.3465 17.5001L16.8652 17.3646C16.4372 18.8857 15.0393 20.0001 13.3824 20.0001V20.5001ZM3.92857 1.5V1H3.8369V1.5V2H3.92857V1.5ZM0.5 4.8369H0V5.73529H0.5H1V4.8369H0.5ZM14.2143 6.021H14.7143V4.8369H14.2143H13.7143V6.021H14.2143ZM10.8774 1.5V1H10.7857V1.5V2H10.8774V1.5ZM14.2143 4.8369H14.7143C14.7143 4.53473 14.7148 4.35109 14.7007 4.1917L14.2026 4.23574L13.7046 4.27979C13.7138 4.38414 13.7143 4.51336 13.7143 4.8369H14.2143ZM10.8774 1.5V2C11.2009 2 11.3301 2.00049 11.4345 2.00972L11.4785 1.51166L11.5226 1.0136C11.3632 0.99951 11.1796 1 10.8774 1V1.5ZM14.2026 4.23574L14.7007 4.1917C14.5513 2.50223 13.2121 1.163 11.5226 1.0136L11.4785 1.51166L11.4345 2.00972C12.6413 2.11643 13.5979 3.07302 13.7046 4.27979L14.2026 4.23574ZM14.2143 6.021H13.7143C13.7143 9.45307 10.9321 12.2354 7.5 12.2354V12.7354V13.2354C11.4843 13.2354 14.7143 10.0053 14.7143 6.021H14.2143ZM0.5 5.73529H0C0 9.87742 3.35786 13.2354 7.5 13.2354V12.7354V12.2354C3.91015 12.2354 1 9.32515 1 5.73529H0.5ZM3.8369 1.5V1C3.53473 1 3.35109 0.99951 3.1917 1.0136L3.23574 1.51166L3.27979 2.00972C3.38414 2.00049 3.51336 2 3.8369 2V1.5ZM0.5 4.8369H1C1 4.51336 1.00049 4.38414 1.00972 4.27979L0.511661 4.23574L0.0136047 4.1917C-0.000489891 4.35109 0 4.53473 0 4.8369H0.5ZM3.23574 1.51166L3.1917 1.0136C1.50223 1.163 0.163003 2.50223 0.0136047 4.1917L0.511661 4.23574L1.00972 4.27979C1.11643 3.07302 2.07302 2.11643 3.27979 2.00972L3.23574 1.51166ZM20.5 14.5H20C20 15.8807 18.8807 17 17.5 17V17.5V18C19.433 18 21 16.433 21 14.5H20.5ZM17.5 17.5V17C16.1193 17 15 15.8807 15 14.5H14.5H14C14 16.433 15.567 18 17.5 18V17.5ZM14.5 14.5H15C15 13.1193 16.1193 12 17.5 12V11.5V11C15.567 11 14 12.567 14 14.5H14.5ZM17.5 11.5V12C18.8807 12 20 13.1193 20 14.5H20.5H21C21 12.567 19.433 11 17.5 11V11.5ZM10.5 0.5H10V2.5H10.5H11V0.5H10.5ZM4.5 0.5H4V2.5H4.5H5V0.5H4.5Z" fill="#424242"/>
</svg>
