<svg width="48" height="48" viewBox="0 0 48 48" fill="none" xmlns="http://www.w3.org/2000/svg">
<rect x="0.25" y="0.25" width="47.5" height="47.5" rx="23.75" fill="#F9F9F9"/>
<rect x="0.25" y="0.25" width="47.5" height="47.5" rx="23.75" stroke="#D6D6D6" stroke-width="0.5"/>
<path d="M28.0378 15C29.6762 15 31.0238 16.38 31.0238 18.08C31.0238 19.78 29.6859 21.15 28.0378 21.15M32.6331 29.74C34 29.12 34 28.08 34 26.91C34 25.19 31.8187 23.75 28.9685 23.49M25.6335 18C25.6335 20.21 23.8982 22 21.7557 22C19.6132 22 17.8778 20.21 17.8778 18C17.8778 15.79 19.6132 14 21.7557 14C23.8982 14 25.6335 15.79 25.6335 18ZM29.5114 29.5C29.5114 31.99 29.5114 34 21.7557 34C14 34 14 31.99 14 29.5C14 27.01 17.4707 25 21.7557 25C26.0407 25 29.5114 27.01 29.5114 29.5Z" stroke="#424242" stroke-linecap="round" stroke-linejoin="round"/>
</svg>
