<svg width="15" height="15" viewBox="0 0 15 15" fill="none" xmlns="http://www.w3.org/2000/svg">
<path d="M8.5 7.5H5.83333C5.64924 7.5 5.5 7.64924 5.5 7.83333V9.27432C5.5 9.41062 5.58298 9.53319 5.70954 9.58381L6.17629 9.77052C6.81205 10.0248 7.52128 10.0248 8.15704 9.77052L8.6238 9.58381C8.75035 9.53319 8.83333 9.41062 8.83333 9.27432V7.83333C8.83333 7.64924 8.68409 7.5 8.5 7.5Z" fill="#96BFFF"/>
<path d="M1.66667 7.16667C1.66667 6.89052 1.44281 6.66667 1.16667 6.66667C0.890524 6.66667 0.666667 6.89052 0.666667 7.16667H1.16667H1.66667ZM13.6667 7.16667C13.6667 6.89052 13.4428 6.66667 13.1667 6.66667C12.8905 6.66667 12.6667 6.89052 12.6667 7.16667H13.1667H13.6667ZM12.9451 7.43315L12.8014 6.95423L12.8014 6.95423L12.9451 7.43315ZM8.79654 8.15569C8.53204 8.23504 8.38195 8.51378 8.4613 8.77828C8.54065 9.04277 8.81939 9.19286 9.08389 9.11352L8.94021 8.6346L8.79654 8.15569ZM5.24945 9.11352C5.51394 9.19286 5.79268 9.04277 5.87203 8.77828C5.95138 8.51378 5.80129 8.23504 5.53679 8.15569L5.39312 8.6346L5.24945 9.11352ZM1.38827 7.43315L1.53194 6.95423L1.53194 6.95423L1.38827 7.43315ZM0.600518 7.02267L0.175906 7.28669L0.175907 7.28669L0.600518 7.02267ZM0.666808 7.11177L1.0417 6.78093L1.0417 6.78093L0.666808 7.11177ZM13.7328 7.02267L13.3082 6.75865L13.3082 6.75866L13.7328 7.02267ZM13.6665 7.11177L14.0414 7.4426L14.0414 7.4426L13.6665 7.11177ZM13.0956 2.94865L12.78 3.33649L12.78 3.33649L13.0956 2.94865ZM13.3847 3.23773L12.9968 3.5533L12.9968 3.5533L13.3847 3.23773ZM1.23773 2.94865L0.922162 2.56082L0.922162 2.56082L1.23773 2.94865ZM0.948654 3.23773L0.560818 2.92216L0.560818 2.92216L0.948654 3.23773ZM9.50015 1.5L9.02581 1.65811L9.02581 1.65812L9.50015 1.5ZM9.51726 1.55132L9.9916 1.3932L9.9916 1.3932L9.51726 1.55132ZM4.81638 1.55132L4.34204 1.3932L4.34204 1.3932L4.81638 1.55132ZM4.83348 1.5L5.30782 1.65811L5.30783 1.65811L4.83348 1.5ZM4.79296 1.62021L5.26315 1.79029L5.26315 1.79029L4.79296 1.62021ZM3.48733 2.00016C3.21128 2.00716 2.99316 2.23661 3.00016 2.51267C3.00716 2.78872 3.23661 3.00684 3.51267 2.99984L3.5 2.5L3.48733 2.00016ZM9.54067 1.62021L10.0109 1.45013L10.0109 1.45012L9.54067 1.62021ZM10.8207 2.99984C11.0967 3.00684 11.3262 2.78872 11.3332 2.51267C11.3402 2.23661 11.1221 2.00716 10.846 2.00016L10.8333 2.5L10.8207 2.99984ZM8.28641 0.502439L8.25618 1.00152L8.25618 1.00152L8.28641 0.502439ZM9.44291 1.336L8.979 1.5225L8.979 1.5225L9.44291 1.336ZM6.04723 0.502439L6.017 0.00335298L6.017 0.00335299L6.04723 0.502439ZM4.89072 1.336L5.35464 1.5225L5.35464 1.5225L4.89072 1.336ZM8.6238 9.58381L8.4381 9.11958L8.4381 9.11958L8.6238 9.58381ZM8.15704 9.77052L8.34274 10.2348L8.34274 10.2348L8.15704 9.77052ZM6.17629 9.77052L5.9906 10.2348L5.9906 10.2348L6.17629 9.77052ZM5.70954 9.58381L5.89523 9.11958L5.89523 9.11958L5.70954 9.58381ZM7.16667 13.8333V13.3333C5.73985 13.3333 4.71452 13.3325 3.93418 13.2392C3.16278 13.147 2.70725 12.9717 2.37753 12.6786L2.04535 13.0523L1.71316 13.426C2.26212 13.914 2.95304 14.1291 3.81552 14.2322C4.66907 14.3342 5.76505 14.3333 7.16667 14.3333V13.8333ZM1.16667 7.16667H0.666667C0.666667 8.41608 0.666117 9.72044 0.779167 10.8109C0.835783 11.3571 0.922673 11.8698 1.06049 12.307C1.19607 12.7371 1.39627 13.1443 1.71316 13.426L2.04535 13.0523L2.37753 12.6786C2.25508 12.5697 2.12578 12.3602 2.01423 12.0064C1.90492 11.6596 1.82705 11.2212 1.77384 10.7078C1.66722 9.67934 1.66667 8.43141 1.66667 7.16667H1.16667ZM13.1667 7.16667H12.6667C12.6667 8.43141 12.6661 9.67934 12.5595 10.7078C12.5063 11.2212 12.4284 11.6596 12.3191 12.0064C12.2076 12.3602 12.0782 12.5697 11.9558 12.6786L12.288 13.0523L12.6202 13.426C12.9371 13.1443 13.1373 12.7371 13.2728 12.307C13.4107 11.8698 13.4975 11.3571 13.5542 10.8109C13.6672 9.72044 13.6667 8.41608 13.6667 7.16667H13.1667ZM7.16667 13.8333V14.3333C8.56828 14.3333 9.66426 14.3342 10.5178 14.2322C11.3803 14.1291 12.0712 13.914 12.6202 13.426L12.288 13.0523L11.9558 12.6786C11.6261 12.9717 11.1706 13.147 10.3991 13.2392C9.61882 13.3325 8.59348 13.3333 7.16667 13.3333V13.8333ZM4.23929 2.5V3H10.094V2.5V2H4.23929V2.5ZM12.9451 7.43315L12.8014 6.95423L8.79654 8.15569L8.94021 8.6346L9.08389 9.11352L13.0887 7.91206L12.9451 7.43315ZM5.39312 8.6346L5.53679 8.15569L1.53194 6.95423L1.38827 7.43315L1.2446 7.91206L5.24945 9.11352L5.39312 8.6346ZM0.5 6.23929H0C0 6.43637 -0.000596093 6.62138 0.015119 6.77626C0.0318933 6.94157 0.0704878 7.11714 0.175906 7.28669L0.600518 7.02267L1.02513 6.75865C1.03003 6.76653 1.01837 6.75765 1.01001 6.67531C1.0006 6.58253 1 6.45669 1 6.23929H0.5ZM1.38827 7.43315L1.53194 6.95423C1.32371 6.89176 1.20335 6.85503 1.11718 6.81936C1.04072 6.78769 1.03556 6.77397 1.0417 6.78093L0.666808 7.11177L0.291914 7.4426C0.424014 7.59229 0.581089 7.67971 0.734611 7.74328C0.87844 7.80284 1.05583 7.85543 1.2446 7.91206L1.38827 7.43315ZM0.600518 7.02267L0.175907 7.28669C0.210173 7.3418 0.248977 7.39395 0.291915 7.4426L0.666808 7.11177L1.0417 6.78093C1.03557 6.77397 1.03002 6.76652 1.02513 6.75865L0.600518 7.02267ZM13.8333 6.23929H13.3333C13.3333 6.45669 13.3327 6.58253 13.3233 6.67531C13.315 6.75765 13.3033 6.76653 13.3082 6.75865L13.7328 7.02267L14.1574 7.28669C14.2628 7.11715 14.3014 6.94158 14.3182 6.77626C14.3339 6.62139 14.3333 6.43637 14.3333 6.23929H13.8333ZM12.9451 7.43315L13.0887 7.91206C13.2775 7.85543 13.4549 7.80284 13.5987 7.74328C13.7522 7.67971 13.9093 7.5923 14.0414 7.4426L13.6665 7.11177L13.2916 6.78093C13.2978 6.77397 13.2926 6.78769 13.2161 6.81935C13.13 6.85503 13.0096 6.89176 12.8014 6.95423L12.9451 7.43315ZM13.7328 7.02267L13.3082 6.75866C13.3033 6.76653 13.2978 6.77398 13.2916 6.78093L13.6665 7.11177L14.0414 7.4426C14.0844 7.39395 14.1232 7.34179 14.1574 7.28668L13.7328 7.02267ZM10.094 2.5V3C10.9229 3 11.5009 3.00081 11.9422 3.05267C12.3727 3.10324 12.6079 3.19644 12.78 3.33649L13.0956 2.94865L13.4112 2.56082C13.0319 2.25222 12.5831 2.12109 12.0589 2.0595C11.5457 1.99919 10.8986 2 10.094 2V2.5ZM13.8333 6.23929H14.3333C14.3333 5.43473 14.3341 4.78763 14.2738 4.27439C14.2122 3.75025 14.0811 3.30144 13.7725 2.92216L13.3847 3.23773L12.9968 3.5533C13.1369 3.72542 13.2301 3.96067 13.2807 4.39109C13.3325 4.83242 13.3333 5.4104 13.3333 6.23929H13.8333ZM13.0956 2.94865L12.78 3.33649C12.8595 3.40116 12.9322 3.47381 12.9968 3.5533L13.3847 3.23773L13.7725 2.92216C13.6647 2.78969 13.5436 2.66861 13.4112 2.56082L13.0956 2.94865ZM4.23929 2.5V2C3.43473 2 2.78763 1.99919 2.27439 2.0595C1.75025 2.12109 1.30144 2.25222 0.922162 2.56082L1.23773 2.94865L1.5533 3.33649C1.72542 3.19644 1.96067 3.10324 2.39109 3.05267C2.83242 3.00081 3.4104 3 4.23929 3V2.5ZM0.5 6.23929H1C1 5.4104 1.00081 4.83242 1.05267 4.39109C1.10324 3.96067 1.19644 3.72542 1.33649 3.5533L0.948654 3.23773L0.560818 2.92216C0.252217 3.30144 0.121087 3.75025 0.0594981 4.27439C-0.000808479 4.78763 0 5.43473 0 6.23929H0.5ZM1.23773 2.94865L0.922162 2.56082C0.789687 2.66861 0.668607 2.78969 0.560818 2.92216L0.948654 3.23773L1.33649 3.5533C1.40116 3.47381 1.47381 3.40116 1.5533 3.33649L1.23773 2.94865ZM6.22091 0.5V1H8.11272V0.5V0H6.22091V0.5ZM9.50015 1.5L9.02581 1.65812L9.04291 1.70943L9.51726 1.55132L9.9916 1.3932L9.97449 1.34188L9.50015 1.5ZM4.81638 1.55132L5.29072 1.70943L5.30782 1.65811L4.83348 1.5L4.35914 1.34188L4.34204 1.3932L4.81638 1.55132ZM4.81638 1.55132L4.34204 1.3932C4.32938 1.43118 4.32585 1.44165 4.32278 1.45014L4.79296 1.62021L5.26315 1.79029C5.27157 1.76701 5.27982 1.74213 5.29072 1.70943L4.81638 1.55132ZM4.79296 1.62021L4.32278 1.45013C4.2162 1.74478 3.86202 1.99066 3.48733 2.00016L3.5 2.5L3.51267 2.99984C4.23591 2.98151 4.99614 2.52843 5.26315 1.79029L4.79296 1.62021ZM9.51726 1.55132L9.04291 1.70943C9.05374 1.74191 9.06208 1.76706 9.07049 1.79031L9.54067 1.62021L10.0109 1.45012C10.0078 1.44169 10.0042 1.43099 9.9916 1.3932L9.51726 1.55132ZM9.54067 1.62021L9.07049 1.79029C9.33746 2.52832 10.0973 2.98151 10.8207 2.99984L10.8333 2.5L10.846 2.00016C10.4714 1.99067 10.1175 1.74489 10.0109 1.45013L9.54067 1.62021ZM8.11272 0.5V1C8.20831 1 8.23467 1.00022 8.25618 1.00152L8.28641 0.502439L8.31663 0.00335299C8.25761 -0.000221529 8.19503 0 8.11272 0V0.5ZM9.50015 1.5L9.97449 1.34189C9.94847 1.26381 9.92888 1.20436 9.90683 1.1495L9.44291 1.336L8.979 1.5225C8.98703 1.54249 8.99558 1.56743 9.02581 1.65811L9.50015 1.5ZM8.28641 0.502439L8.25618 1.00152C8.57753 1.02099 8.85892 1.2238 8.979 1.5225L9.44291 1.336L9.90683 1.1495C9.64265 0.492363 9.02359 0.0461683 8.31663 0.00335299L8.28641 0.502439ZM6.22091 0.5V0C6.13861 0 6.07602 -0.000221526 6.017 0.00335298L6.04723 0.502439L6.07745 1.00152C6.09896 1.00022 6.12532 1 6.22091 1V0.5ZM4.83348 1.5L5.30783 1.65811C5.33805 1.56744 5.3466 1.54249 5.35464 1.5225L4.89072 1.336L4.42681 1.1495C4.40475 1.20436 4.38517 1.26381 4.35914 1.34189L4.83348 1.5ZM6.04723 0.502439L6.017 0.00335299C5.31004 0.0461683 4.69098 0.492363 4.4268 1.1495L4.89072 1.336L5.35464 1.5225C5.47472 1.2238 5.75611 1.02099 6.07745 1.00152L6.04723 0.502439ZM5.83333 7.5V8H8.5V7.5V7H5.83333V7.5ZM8.83333 7.83333H8.33333V9.27432H8.83333H9.33333V7.83333H8.83333ZM8.6238 9.58381L8.4381 9.11958L7.97135 9.30628L8.15704 9.77052L8.34274 10.2348L8.80949 10.0481L8.6238 9.58381ZM6.17629 9.77052L6.36199 9.30628L5.89523 9.11958L5.70954 9.58381L5.52384 10.0481L5.9906 10.2348L6.17629 9.77052ZM5.5 9.27432H6V7.83333H5.5H5V9.27432H5.5ZM5.70954 9.58381L5.89523 9.11958C5.95851 9.14489 6 9.20617 6 9.27432H5.5H5C5 9.61508 5.20746 9.9215 5.52384 10.0481L5.70954 9.58381ZM8.15704 9.77052L7.97135 9.30628C7.45479 9.5129 6.87854 9.5129 6.36199 9.30628L6.17629 9.77052L5.9906 10.2348C6.74556 10.5367 7.58777 10.5367 8.34274 10.2348L8.15704 9.77052ZM8.83333 9.27432H8.33333C8.33333 9.20617 8.37482 9.14489 8.4381 9.11958L8.6238 9.58381L8.80949 10.0481C9.12587 9.9215 9.33333 9.61508 9.33333 9.27432H8.83333ZM8.5 7.5V8C8.40795 8 8.33333 7.92538 8.33333 7.83333H8.83333H9.33333C9.33333 7.3731 8.96024 7 8.5 7V7.5ZM5.83333 7.5V7C5.3731 7 5 7.3731 5 7.83333H5.5H6C6 7.92538 5.92538 8 5.83333 8V7.5Z" fill="#424242"/>
</svg>
