<svg width="16" height="16" viewBox="0 0 16 16" fill="none" xmlns="http://www.w3.org/2000/svg">
<g clip-path="url(#clip0_2224_367)">
<path d="M14.1667 9.19674C14.1667 9.47289 14.3905 9.69674 14.6667 9.69674C14.9428 9.69674 15.1667 9.47289 15.1667 9.19674H14.6667H14.1667ZM9.33334 15.1668C9.60949 15.1668 9.83334 14.943 9.83334 14.6668C9.83334 14.3907 9.60949 14.1668 9.33334 14.1668V14.6668V15.1668ZM2.11439 13.8658L2.47239 13.5167L2.47239 13.5167L2.11439 13.8658ZM13.8856 3.16021L13.5276 3.50926L13.5276 3.50926L13.8856 3.16021ZM2.11439 3.16021L2.47239 3.50926L2.47239 3.50926L2.11439 3.16021ZM4.16668 2.35914C4.16668 2.63528 4.39053 2.85914 4.66668 2.85914C4.94282 2.85914 5.16668 2.63528 5.16668 2.35914H4.66668H4.16668ZM5.16668 1.3335C5.16668 1.05735 4.94282 0.833496 4.66668 0.833496C4.39053 0.833496 4.16668 1.05735 4.16668 1.3335H4.66668H5.16668ZM10.8333 2.35914C10.8333 2.63528 11.0572 2.85914 11.3333 2.85914C11.6095 2.85914 11.8333 2.63528 11.8333 2.35914H11.3333H10.8333ZM11.8333 1.3335C11.8333 1.05735 11.6095 0.833496 11.3333 0.833496C11.0572 0.833496 10.8333 1.05735 10.8333 1.3335H11.3333H11.8333ZM1.66668 5.27794C1.39053 5.27794 1.16668 5.5018 1.16668 5.77794C1.16668 6.05408 1.39053 6.27794 1.66668 6.27794V5.77794V5.27794ZM14.3333 6.27794C14.6095 6.27794 14.8333 6.05408 14.8333 5.77794C14.8333 5.5018 14.6095 5.27794 14.3333 5.27794V5.77794V6.27794ZM10.2479 11.5279L9.80349 11.757C9.88507 11.9153 10.0447 12.0182 10.2225 12.0273L10.2479 11.5279ZM11.6413 12.0995C11.917 12.1136 12.152 11.9014 12.166 11.6256C12.1801 11.3498 11.9679 11.1149 11.6921 11.1008L11.6667 11.6002L11.6413 12.0995ZM10.1111 10.1711C9.98461 9.92564 9.68307 9.82921 9.43761 9.95572C9.19215 10.0822 9.09573 10.3838 9.22224 10.6292L9.66668 10.4002L10.1111 10.1711ZM13.5402 11.1514C13.6848 11.3867 13.9928 11.4601 14.228 11.3155C14.4633 11.1709 14.5367 10.8629 14.3921 10.6277L13.9662 10.8896L13.5402 11.1514ZM14.2023 12.4724L14.6331 12.2186C14.5481 12.0743 14.3965 11.9822 14.2293 11.9731L14.2023 12.4724ZM12.8937 11.9009C12.6179 11.886 12.3823 12.0974 12.3674 12.3732C12.3525 12.6489 12.5639 12.8845 12.8397 12.8994L12.8667 12.4002L12.8937 11.9009ZM14.4359 13.854C14.576 14.0919 14.8825 14.1711 15.1205 14.031C15.3584 13.8908 15.4376 13.5843 15.2975 13.3464L14.8667 13.6002L14.4359 13.854ZM10.91 12.8489C10.7654 12.6137 10.4574 12.5402 10.2222 12.6848C9.98694 12.8294 9.91348 13.1374 10.0581 13.3726L10.484 13.1108L10.91 12.8489ZM6.66668 2.35914V2.85914H9.33334V2.35914V1.85914H6.66668V2.35914ZM14.6667 7.82922H14.1667V9.19674H14.6667H15.1667V7.82922H14.6667ZM9.33334 14.6668V14.1668H6.66668V14.6668V15.1668H9.33334V14.6668ZM1.33334 9.19674H1.83334V7.82922H1.33334H0.833344V9.19674H1.33334ZM6.66668 14.6668V14.1668C5.39511 14.1668 4.49301 14.1657 3.80892 14.0714C3.14054 13.9792 2.75508 13.8066 2.47239 13.5167L2.11439 13.8658L1.75639 14.2148C2.25475 14.7259 2.88836 14.9539 3.67232 15.062C4.44057 15.1679 5.42409 15.1668 6.66668 15.1668V14.6668ZM1.33334 9.19674H0.833344C0.833344 10.4723 0.832333 11.478 0.935216 12.2628C1.03982 13.0608 1.25976 13.7054 1.75639 14.2148L2.11439 13.8658L2.47239 13.5167C2.18798 13.225 2.01739 12.8245 1.92673 12.1328C1.83435 11.4281 1.83334 10.4998 1.83334 9.19674H1.33334ZM9.33334 2.35914V2.85914C10.6049 2.85914 11.507 2.86025 12.1911 2.95458C12.8595 3.04675 13.2449 3.21932 13.5276 3.50926L13.8856 3.16021L14.2436 2.81116C13.7453 2.30003 13.1117 2.07206 12.3277 1.96396C11.5594 1.85802 10.5759 1.85914 9.33334 1.85914V2.35914ZM14.6667 7.82922H15.1667C15.1667 6.5537 15.1677 5.548 15.0648 4.76315C14.9602 3.96519 14.7403 3.32053 14.2436 2.81116L13.8856 3.16021L13.5276 3.50926C13.812 3.80097 13.9826 4.20151 14.0733 4.89312C14.1657 5.59785 14.1667 6.52612 14.1667 7.82922H14.6667ZM6.66668 2.35914V1.85914C5.42409 1.85914 4.44057 1.85802 3.67232 1.96396C2.88836 2.07206 2.25475 2.30003 1.75639 2.81116L2.11439 3.16021L2.47239 3.50926C2.75508 3.21932 3.14054 3.04675 3.80892 2.95458C4.49301 2.86025 5.39511 2.85914 6.66668 2.85914V2.35914ZM1.33334 7.82922H1.83334C1.83334 6.52612 1.83435 5.59785 1.92673 4.89312C2.01739 4.20151 2.18798 3.80097 2.47239 3.50926L2.11439 3.16021L1.75639 2.81116C1.25976 3.32053 1.03982 3.96519 0.935216 4.76315C0.832333 5.548 0.833344 6.5537 0.833344 7.82922H1.33334ZM4.66668 2.35914H5.16668V1.3335H4.66668H4.16668V2.35914H4.66668ZM11.3333 2.35914H11.8333V1.3335H11.3333H10.8333V2.35914H11.3333ZM1.66668 5.77794V6.27794H14.3333V5.77794V5.27794H1.66668V5.77794ZM10.2479 11.5279L10.2225 12.0273L11.6413 12.0995L11.6667 11.6002L11.6921 11.1008L10.2734 11.0286L10.2479 11.5279ZM10.2479 11.5279L10.6924 11.2989L10.1111 10.1711L9.66668 10.4002L9.22224 10.6292L9.80349 11.757L10.2479 11.5279ZM13.9662 10.8896L14.3921 10.6277C14.1962 10.3091 13.6163 9.50016 12.2876 9.50016V10.0002V10.5002C13.1137 10.5002 13.4266 10.9666 13.5402 11.1514L13.9662 10.8896ZM12.2876 10.0002V9.50016C11.5387 9.50016 11.0213 9.75864 10.6324 10.1426C10.2867 10.4839 10.0292 10.9546 9.83191 11.2506L10.2479 11.5279L10.664 11.8053C10.9389 11.3929 11.0863 11.0997 11.335 10.8542C11.5404 10.6514 11.8068 10.5002 12.2876 10.5002V10.0002ZM14.2023 12.4724L14.2293 11.9731L12.8937 11.9009L12.8667 12.4002L12.8397 12.8994L14.1753 12.9717L14.2023 12.4724ZM14.2023 12.4724L13.7715 12.7262L14.4359 13.854L14.8667 13.6002L15.2975 13.3464L14.6331 12.2186L14.2023 12.4724ZM10.484 13.1108L10.0581 13.3726C10.254 13.6913 10.8339 14.5002 12.1626 14.5002V14.0002V13.5002C11.3365 13.5002 11.0236 13.0337 10.91 12.8489L10.484 13.1108ZM12.1626 14.0002V14.5002C12.9115 14.5002 13.4289 14.2417 13.8178 13.8577C14.1635 13.5164 14.421 13.0457 14.6183 12.7497L14.2023 12.4724L13.7863 12.195C13.5113 12.6074 13.3639 12.9006 13.1152 13.1461C12.9098 13.3489 12.6434 13.5002 12.1626 13.5002V14.0002Z" fill="#626060"/>
</g>
<defs>
<clipPath id="clip0_2224_367">
<rect width="16" height="16" fill="white"/>
</clipPath>
</defs>
</svg>
