<svg width="15" height="15" viewBox="0 0 15 15" fill="none" xmlns="http://www.w3.org/2000/svg">
<path d="M13.8333 7.16667C13.8333 8.04215 13.6609 8.90905 13.3259 9.71789C12.9908 10.5267 12.4998 11.2617 11.8807 11.8807C11.2617 12.4998 10.5267 12.9908 9.71789 13.3259C8.90905 13.6609 8.04215 13.8333 7.16667 13.8333C6.29119 13.8333 5.42428 13.6609 4.61544 13.3259C3.80661 12.9908 3.07168 12.4998 2.45262 11.8807C1.83356 11.2617 1.3425 10.5267 1.00747 9.71789C0.672438 8.90905 0.5 8.04214 0.5 7.16667C0.5 6.29119 0.672439 5.42428 1.00747 4.61544C1.3425 3.80661 1.83356 3.07168 2.45262 2.45262C3.07168 1.83356 3.80661 1.3425 4.61544 1.00747C5.42428 0.672438 6.29119 0.5 7.16667 0.5C8.04215 0.5 8.90905 0.672439 9.71789 1.00747C10.5267 1.3425 11.2617 1.83356 11.8807 2.45262C12.4998 3.07168 12.9908 3.80661 13.3259 4.61544C13.6609 5.42428 13.8333 6.29119 13.8333 7.16667Z" fill="#96BFFF"/>
<path d="M13.8333 7.16667C13.8333 8.04215 13.6609 8.90905 13.3259 9.71789C12.9908 10.5267 12.4998 11.2617 11.8807 11.8807C11.2617 12.4998 10.5267 12.9908 9.71789 13.3259C8.90905 13.6609 8.04215 13.8333 7.16667 13.8333M13.8333 7.16667C13.8333 6.29119 13.6609 5.42428 13.3259 4.61544C12.9908 3.80661 12.4998 3.07168 11.8807 2.45262C11.2617 1.83356 10.5267 1.3425 9.71789 1.00747C8.90905 0.672439 8.04215 0.5 7.16667 0.5M13.8333 7.16667L0.5 7.16667M7.16667 13.8333C6.29119 13.8333 5.42428 13.6609 4.61544 13.3259C3.80661 12.9908 3.07168 12.4998 2.45262 11.8807C1.83356 11.2617 1.3425 10.5267 1.00747 9.71789C0.672438 8.90905 0.5 8.04214 0.5 7.16667M7.16667 13.8333C7.51686 13.8333 7.86362 13.6609 8.18716 13.3259C8.51069 12.9908 8.80466 12.4998 9.05228 11.8807C9.29991 11.2617 9.49633 10.5267 9.63035 9.71789C9.76436 8.90905 9.83333 8.04215 9.83333 7.16667C9.83333 6.29119 9.76436 5.42428 9.63035 4.61544C9.49633 3.80661 9.29991 3.07168 9.05228 2.45262C8.80466 1.83356 8.51069 1.3425 8.18716 1.00747C7.86362 0.672439 7.51686 0.5 7.16667 0.5M7.16667 13.8333C6.81647 13.8333 6.46971 13.6609 6.14618 13.3259C5.82264 12.9908 5.52867 12.4998 5.28105 11.8807C5.03343 11.2617 4.837 10.5267 4.70299 9.71789C4.56898 8.90905 4.5 8.04214 4.5 7.16667C4.5 6.29119 4.56898 5.42428 4.70299 4.61544C4.837 3.80661 5.03343 3.07168 5.28105 2.45262C5.52867 1.83356 5.82264 1.3425 6.14618 1.00747C6.46971 0.672438 6.81648 0.5 7.16667 0.5M0.5 7.16667C0.5 6.29119 0.672439 5.42428 1.00747 4.61544C1.3425 3.80661 1.83356 3.07168 2.45262 2.45262C3.07168 1.83356 3.80661 1.3425 4.61544 1.00747C5.42428 0.672438 6.29119 0.5 7.16667 0.5" stroke="#626060" stroke-linecap="round"/>
</svg>
