<svg width="12" height="15" viewBox="0 0 12 15" fill="none" xmlns="http://www.w3.org/2000/svg">
<path d="M0.5 5.92886C0.5 2.93058 2.88781 0.5 5.83333 0.5C8.77885 0.5 11.1667 2.93058 11.1667 5.92886C11.1667 8.90364 9.46445 12.3749 6.80862 13.6163C6.1895 13.9057 5.47716 13.9057 4.85805 13.6163C2.20222 12.3749 0.5 8.90364 0.5 5.92886Z" fill="#96BFFF"/>
<path d="M7.83333 5.83333C7.83333 6.9379 6.9379 7.83333 5.83333 7.83333C4.72876 7.83333 3.83333 6.9379 3.83333 5.83333C3.83333 4.72876 4.72876 3.83333 5.83333 3.83333C6.9379 3.83333 7.83333 4.72876 7.83333 5.83333Z" fill="#96BFFF"/>
<path d="M6.80862 13.6163L6.5969 13.1633L6.5969 13.1633L6.80862 13.6163ZM4.85805 13.6163L5.06976 13.1633L5.06976 13.1633L4.85805 13.6163ZM6.80862 13.6163L6.5969 13.1633C6.11197 13.39 5.5547 13.39 5.06976 13.1633L4.85805 13.6163L4.64633 14.0693C5.39962 14.4214 6.26704 14.4214 7.02034 14.0693L6.80862 13.6163ZM0.5 5.92886H0C0 7.5056 0.449352 9.19861 1.2437 10.6612C2.03708 12.1221 3.19625 13.3915 4.64633 14.0693L4.85805 13.6163L5.06976 13.1633C3.86401 12.5998 2.84416 11.5128 2.12247 10.184C1.40176 8.85694 1 7.32691 1 5.92886H0.5ZM11.1667 5.92886H10.6667C10.6667 7.32691 10.2649 8.85694 9.5442 10.184C8.82251 11.5128 7.80265 12.5998 6.5969 13.1633L6.80862 13.6163L7.02034 14.0693C8.47042 13.3915 9.62959 12.1221 10.423 10.6612C11.2173 9.19861 11.6667 7.5056 11.6667 5.92886H11.1667ZM5.83333 0.5V1C8.49438 1 10.6667 3.19832 10.6667 5.92886H11.1667H11.6667C11.6667 2.66285 9.06333 0 5.83333 0V0.5ZM5.83333 0.5V0C2.60334 0 0 2.66285 0 5.92886H0.5H1C1 3.19832 3.17229 1 5.83333 1V0.5ZM7.83333 5.83333H7.33333C7.33333 6.66176 6.66176 7.33333 5.83333 7.33333V7.83333V8.33333C7.21405 8.33333 8.33333 7.21404 8.33333 5.83333H7.83333ZM5.83333 7.83333V7.33333C5.00491 7.33333 4.33333 6.66176 4.33333 5.83333H3.83333H3.33333C3.33333 7.21404 4.45262 8.33333 5.83333 8.33333V7.83333ZM3.83333 5.83333H4.33333C4.33333 5.00491 5.00491 4.33333 5.83333 4.33333V3.83333V3.33333C4.45262 3.33333 3.33333 4.45262 3.33333 5.83333H3.83333ZM5.83333 3.83333V4.33333C6.66176 4.33333 7.33333 5.00491 7.33333 5.83333H7.83333H8.33333C8.33333 4.45262 7.21405 3.33333 5.83333 3.33333V3.83333Z" fill="#424242"/>
</svg>
