<svg width="15" height="15" viewBox="0 0 15 15" fill="none" xmlns="http://www.w3.org/2000/svg">
<path d="M0.5 8.5C0.5 5.98584 0.5 4.72876 1.28105 3.94771C2.0621 3.16667 3.31918 3.16667 5.83333 3.16667H8.5C11.0142 3.16667 12.2712 3.16667 13.0523 3.94771C13.8333 4.72876 13.8333 5.98584 13.8333 8.5C13.8333 11.0142 13.8333 12.2712 13.0523 13.0523C12.2712 13.8333 11.0142 13.8333 8.5 13.8333H5.83333C3.31918 13.8333 2.0621 13.8333 1.28105 13.0523C0.5 12.2712 0.5 11.0142 0.5 8.5Z" fill="#96BFFF"/>
<path d="M9.83333 8.5C9.83333 9.97276 8.63943 11.1667 7.16667 11.1667C5.69391 11.1667 4.5 9.97276 4.5 8.5C4.5 7.02724 5.69391 5.83333 7.16667 5.83333C8.63943 5.83333 9.83333 7.02724 9.83333 8.5Z" fill="#96BFFF"/>
<path d="M9.33333 3.16667C9.33333 3.44281 9.55719 3.66667 9.83333 3.66667C10.1095 3.66667 10.3333 3.44281 10.3333 3.16667H9.83333H9.33333ZM4 3.16667C4 3.44281 4.22386 3.66667 4.5 3.66667C4.77614 3.66667 5 3.44281 5 3.16667H4.5H4ZM8.16667 9C8.44281 9 8.66667 8.77614 8.66667 8.5C8.66667 8.22386 8.44281 8 8.16667 8V8.5V9ZM6.16667 8C5.89052 8 5.66667 8.22386 5.66667 8.5C5.66667 8.77614 5.89052 9 6.16667 9V8.5V8ZM7.66667 7.5C7.66667 7.22386 7.44281 7 7.16667 7C6.89052 7 6.66667 7.22386 6.66667 7.5H7.16667H7.66667ZM6.66667 9.5C6.66667 9.77614 6.89052 10 7.16667 10C7.44281 10 7.66667 9.77614 7.66667 9.5H7.16667H6.66667ZM5.83333 3.16667V3.66667H8.5V3.16667V2.66667H5.83333V3.16667ZM8.5 13.8333V13.3333H5.83333V13.8333V14.3333H8.5V13.8333ZM5.83333 13.8333V13.3333C4.56212 13.3333 3.65901 13.3323 2.9739 13.2402C2.30317 13.15 1.91674 12.9809 1.6346 12.6987L1.28105 13.0523L0.927495 13.4058C1.4264 13.9047 2.05904 14.1262 2.84065 14.2312C3.60788 14.3344 4.59039 14.3333 5.83333 14.3333V13.8333ZM0.5 8.5H0C0 9.74294 -0.00106187 10.7255 0.10209 11.4927C0.207175 12.2743 0.428586 12.9069 0.927495 13.4058L1.28105 13.0523L1.6346 12.6987C1.35246 12.4166 1.18335 12.0302 1.09317 11.3594C1.00106 10.6743 1 9.77121 1 8.5H0.5ZM13.8333 8.5H13.3333C13.3333 9.77121 13.3323 10.6743 13.2402 11.3594C13.15 12.0302 12.9809 12.4166 12.6987 12.6987L13.0523 13.0523L13.4058 13.4058C13.9047 12.9069 14.1262 12.2743 14.2312 11.4927C14.3344 10.7255 14.3333 9.74294 14.3333 8.5H13.8333ZM8.5 13.8333V14.3333C9.74294 14.3333 10.7254 14.3344 11.4927 14.2312C12.2743 14.1262 12.9069 13.9047 13.4058 13.4058L13.0523 13.0523L12.6987 12.6987C12.4166 12.9809 12.0302 13.15 11.3594 13.2402C10.6743 13.3323 9.77121 13.3333 8.5 13.3333V13.8333ZM8.5 3.16667V3.66667C9.77121 3.66667 10.6743 3.66773 11.3594 3.75984C12.0302 3.85002 12.4166 4.01913 12.6987 4.30127L13.0523 3.94771L13.4058 3.59416C12.9069 3.09525 12.2743 2.87384 11.4927 2.76876C10.7254 2.6656 9.74294 2.66667 8.5 2.66667V3.16667ZM13.8333 8.5H14.3333C14.3333 7.25706 14.3344 6.27455 14.2312 5.50732C14.1262 4.7257 13.9047 4.09307 13.4058 3.59416L13.0523 3.94771L12.6987 4.30127C12.9809 4.58341 13.15 4.96984 13.2402 5.64057C13.3323 6.32567 13.3333 7.22879 13.3333 8.5H13.8333ZM5.83333 3.16667V2.66667C4.59039 2.66667 3.60788 2.6656 2.84065 2.76876C2.05904 2.87384 1.4264 3.09525 0.927495 3.59416L1.28105 3.94771L1.6346 4.30127C1.91674 4.01913 2.30317 3.85002 2.9739 3.75984C3.65901 3.66773 4.56212 3.66667 5.83333 3.66667V3.16667ZM0.5 8.5H1C1 7.22879 1.00106 6.32567 1.09317 5.64057C1.18335 4.96984 1.35246 4.58341 1.6346 4.30127L1.28105 3.94771L0.927495 3.59416C0.428586 4.09307 0.207175 4.7257 0.10209 5.50732C-0.00106187 6.27455 0 7.25706 0 8.5H0.5ZM7.16667 0.5V1C7.80934 1 8.24105 1.00106 8.56307 1.04436C8.87071 1.08572 9.00238 1.1572 9.08925 1.24408L9.44281 0.890524L9.79636 0.536971C9.49272 0.233324 9.11485 0.109544 8.69632 0.0532741C8.29217 -0.00106187 7.78107 0 7.16667 0V0.5ZM9.83333 3.16667H10.3333C10.3333 2.55226 10.3344 2.04116 10.2801 1.63701C10.2238 1.21848 10.1 0.840618 9.79636 0.536971L9.44281 0.890524L9.08925 1.24408C9.17613 1.33096 9.24761 1.46262 9.28898 1.77026C9.33227 2.09229 9.33333 2.52399 9.33333 3.16667H9.83333ZM7.16667 0.5V0C6.55226 0 6.04116 -0.00106187 5.63701 0.0532741C5.21848 0.109544 4.84062 0.233324 4.53697 0.536971L4.89052 0.890524L5.24408 1.24408C5.33096 1.1572 5.46262 1.08572 5.77026 1.04436C6.09229 1.00106 6.52399 1 7.16667 1V0.5ZM4.5 3.16667H5C5 2.52399 5.00106 2.09229 5.04436 1.77026C5.08572 1.46262 5.1572 1.33096 5.24408 1.24408L4.89052 0.890524L4.53697 0.536971C4.23332 0.840618 4.10954 1.21848 4.05327 1.63701C3.99894 2.04116 4 2.55226 4 3.16667H4.5ZM8.16667 8.5V8H7.16667V8.5V9H8.16667V8.5ZM7.16667 8.5V8H6.16667V8.5V9H7.16667V8.5ZM7.16667 7.5H6.66667V8.5H7.16667H7.66667V7.5H7.16667ZM7.16667 8.5H6.66667V9.5H7.16667H7.66667V8.5H7.16667ZM9.83333 8.5H9.33333C9.33333 9.69662 8.36328 10.6667 7.16667 10.6667V11.1667V11.6667C8.91557 11.6667 10.3333 10.2489 10.3333 8.5H9.83333ZM7.16667 11.1667V10.6667C5.97005 10.6667 5 9.69662 5 8.5H4.5H4C4 10.2489 5.41776 11.6667 7.16667 11.6667V11.1667ZM4.5 8.5H5C5 7.30338 5.97005 6.33333 7.16667 6.33333V5.83333V5.33333C5.41776 5.33333 4 6.7511 4 8.5H4.5ZM7.16667 5.83333V6.33333C8.36328 6.33333 9.33333 7.30338 9.33333 8.5H9.83333H10.3333C10.3333 6.7511 8.91557 5.33333 7.16667 5.33333V5.83333Z" fill="#626060"/>
</svg>
