<svg width="13" height="13" viewBox="0 0 13 13" fill="none" xmlns="http://www.w3.org/2000/svg">
<path d="M11.8334 3C12.1095 3 12.3334 2.77614 12.3334 2.5C12.3334 2.22386 12.1095 2 11.8334 2V2.5V3ZM0.5 2C0.223858 2 0 2.22386 0 2.5C0 2.77614 0.223858 3 0.5 3V2.5V2ZM10.4155 8.76608L9.91659 8.73282L9.91659 8.73282L10.4155 8.76608ZM11.221 4.19993C11.2394 3.9244 11.0309 3.68614 10.7554 3.66777C10.4798 3.64941 10.2416 3.85788 10.2232 4.13341L10.7221 4.16667L11.221 4.19993ZM2.1099 4.13341C2.09153 3.85788 1.85327 3.64941 1.57774 3.66777C1.30221 3.68614 1.09374 3.9244 1.11211 4.19993L1.611 4.16667L2.1099 4.13341ZM1.91763 8.76607L1.41874 8.79933L1.91763 8.76607ZM2.6713 11.9605L3.01289 11.5954L3.01289 11.5954L2.6713 11.9605ZM8.45238 1.35714L8.92672 1.19903L8.92672 1.19903L8.45238 1.35714ZM8.51711 1.55132L8.04276 1.70943L8.04276 1.70943L8.51711 1.55132ZM3.81623 1.55132L3.34189 1.3932L3.34189 1.3932L3.81623 1.55132ZM3.88095 1.35714L3.40661 1.19903L3.40661 1.19903L3.88095 1.35714ZM3.79281 1.62021L4.26299 1.79029L4.263 1.79029L3.79281 1.62021ZM2.5 2C2.22386 2 2 2.22386 2 2.5C2 2.77614 2.22386 3 2.5 3V2.5V2ZM2.57277 2.49957L2.58543 2.99941L2.58543 2.99941L2.57277 2.49957ZM8.54052 1.62021L9.01071 1.45013L9.0107 1.45012L8.54052 1.62021ZM9.83333 3C10.1095 3 10.3333 2.77614 10.3333 2.5C10.3333 2.22386 10.1095 2 9.83333 2V2.5V3ZM9.76057 2.49957L9.7479 2.99941L9.7479 2.99941L9.76057 2.49957ZM7.60359 0.512511L7.68244 0.0187663L7.68244 0.0187663L7.60359 0.512511ZM8.33286 1.03813L8.77633 0.807202L8.77633 0.8072L8.33286 1.03813ZM4.72974 0.512511L4.6509 0.0187663L4.6509 0.0187663L4.72974 0.512511ZM4.00048 1.03813L3.557 0.8072L3.557 0.807201L4.00048 1.03813ZM11.8334 2.5V2H0.5V2.5V3H11.8334V2.5ZM5.90877 12.5V13H6.42435V12.5V12H5.90877V12.5ZM10.4155 8.76608L10.9144 8.79933L11.221 4.19993L10.7221 4.16667L10.2232 4.13341L9.91659 8.73282L10.4155 8.76608ZM1.611 4.16667L1.11211 4.19993L1.41874 8.79933L1.91763 8.76607L2.41652 8.73282L2.1099 4.13341L1.611 4.16667ZM6.42435 12.5V13C7.29765 13 8.00138 13.001 8.55688 12.9283C9.12665 12.8538 9.60902 12.6946 10.0034 12.3256L9.66182 11.9605L9.32023 11.5954C9.13795 11.7659 8.88851 11.8764 8.42718 11.9368C7.95158 11.999 7.32491 12 6.42435 12V12.5ZM10.4155 8.76608L9.91659 8.73282C9.85669 9.63138 9.814 10.2566 9.72029 10.727C9.62939 11.1833 9.5025 11.4248 9.32023 11.5954L9.66182 11.9605L10.0034 12.3256C10.3978 11.9566 10.5888 11.4859 10.701 10.9224C10.8105 10.3729 10.8563 9.67071 10.9144 8.79933L10.4155 8.76608ZM5.90877 12.5V12C5.00821 12 4.38154 11.999 3.90594 11.9368C3.4446 11.8764 3.19516 11.7659 3.01289 11.5954L2.6713 11.9605L2.3297 12.3256C2.7241 12.6946 3.20647 12.8538 3.77623 12.9283C4.33173 13.001 5.03546 13 5.90877 13V12.5ZM1.91763 8.76607L1.41874 8.79933C1.47683 9.67071 1.52264 10.3729 1.63209 10.9224C1.74436 11.4859 1.93531 11.9566 2.3297 12.3256L2.6713 11.9605L3.01289 11.5954C2.83061 11.4248 2.70372 11.1833 2.61282 10.727C2.51911 10.2566 2.47643 9.63138 2.41652 8.73282L1.91763 8.76607ZM5.07017 0.5V1H7.26316V0.5V0H5.07017V0.5ZM8.45238 1.35714L7.97804 1.51526L8.04276 1.70943L8.51711 1.55132L8.99145 1.3932L8.92672 1.19903L8.45238 1.35714ZM3.81623 1.55132L4.29057 1.70943L4.35529 1.51526L3.88095 1.35714L3.40661 1.19903L3.34189 1.3932L3.81623 1.55132ZM3.81623 1.55132L3.34189 1.3932C3.32923 1.43118 3.3257 1.44165 3.32263 1.45014L3.79281 1.62021L4.263 1.79029C4.27142 1.76701 4.27967 1.74213 4.29057 1.70943L3.81623 1.55132ZM2.5 2.5V3C2.53447 3 2.56068 3.00004 2.58543 2.99941L2.57277 2.49957L2.5601 1.99973C2.55108 1.99996 2.54003 2 2.5 2V2.5ZM3.79281 1.62021L3.32263 1.45013C3.20588 1.77288 2.9032 1.99104 2.5601 1.99973L2.57277 2.49957L2.58543 2.99941C3.34026 2.98028 4.00615 2.50033 4.26299 1.79029L3.79281 1.62021ZM8.51711 1.55132L8.04276 1.70943C8.05359 1.74191 8.06193 1.76706 8.07034 1.79031L8.54052 1.62021L9.0107 1.45012C9.00765 1.44169 9.00404 1.43099 8.99145 1.3932L8.51711 1.55132ZM9.83333 2.5V2C9.7933 2 9.78225 1.99996 9.77323 1.99973L9.76057 2.49957L9.7479 2.99941C9.77265 3.00004 9.79886 3 9.83333 3V2.5ZM8.54052 1.62021L8.07034 1.79029C8.32718 2.50033 8.99308 2.98028 9.7479 2.99941L9.76057 2.49957L9.77323 1.99973C9.43013 1.99104 9.12745 1.77288 9.01071 1.45013L8.54052 1.62021ZM7.26316 0.5V1C7.45537 1 7.49507 1.00152 7.52475 1.00626L7.60359 0.512511L7.68244 0.0187663C7.55543 -0.00151534 7.4204 0 7.26316 0V0.5ZM8.45238 1.35714L8.92672 1.19903C8.877 1.04986 8.83574 0.92128 8.77633 0.807202L8.33286 1.03813L7.88938 1.26906C7.90327 1.29573 7.91726 1.33291 7.97804 1.51526L8.45238 1.35714ZM7.60359 0.512511L7.52475 1.00626C7.68104 1.03121 7.81628 1.12869 7.88938 1.26907L8.33286 1.03813L8.77633 0.8072C8.55704 0.386072 8.1513 0.0936368 7.68244 0.0187663L7.60359 0.512511ZM5.07017 0.5V0C4.91293 0 4.77791 -0.00151534 4.6509 0.0187663L4.72974 0.512511L4.80858 1.00626C4.83827 1.00152 4.87796 1 5.07017 1V0.5ZM3.88095 1.35714L4.35529 1.51526C4.41607 1.33292 4.43007 1.29573 4.44395 1.26907L4.00048 1.03813L3.557 0.807201C3.4976 0.921278 3.45633 1.04987 3.40661 1.19903L3.88095 1.35714ZM4.72974 0.512511L4.6509 0.0187663C4.18203 0.0936368 3.7763 0.386072 3.557 0.8072L4.00048 1.03813L4.44395 1.26907C4.51705 1.12869 4.65229 1.03121 4.80858 1.00626L4.72974 0.512511Z" fill="#F04248"/>
</svg>
