<svg width="13" height="15" viewBox="0 0 13 15" fill="none" xmlns="http://www.w3.org/2000/svg">
<path d="M9.16676 9.33333C8.89062 9.33333 8.66676 9.55719 8.66676 9.83333C8.66676 10.1095 8.89062 10.3333 9.16676 10.3333V9.83333V9.33333ZM10.5001 10.3333C10.7762 10.3333 11.0001 10.1095 11.0001 9.83333C11.0001 9.55719 10.7762 9.33333 10.5001 9.33333V9.83333V10.3333ZM8.50009 3.16667H8.00009C8.00009 4.36328 7.03004 5.33333 5.83343 5.33333V5.83333V6.33333C7.58233 6.33333 9.00009 4.91557 9.00009 3.16667H8.50009ZM5.83343 5.83333V5.33333C4.63681 5.33333 3.66676 4.36328 3.66676 3.16667H3.16676H2.66676C2.66676 4.91557 4.08452 6.33333 5.83343 6.33333V5.83333ZM3.16676 3.16667H3.66676C3.66676 1.97005 4.63681 1 5.83343 1V0.5V0C4.08452 0 2.66676 1.41776 2.66676 3.16667H3.16676ZM5.83343 0.5V1C7.03004 1 8.00009 1.97005 8.00009 3.16667H8.50009H9.00009C9.00009 1.41776 7.58233 0 5.83343 0V0.5ZM5.83343 13.8333V13.3333C4.51727 13.3333 3.55392 13.2501 2.84929 13.1075C2.14244 12.9644 1.7295 12.7681 1.48248 12.5669C1.02697 12.196 1.00009 11.7052 1.00009 10.8333H0.500092H9.15527e-05C9.15527e-05 11.6183 -0.0267851 12.6275 0.851032 13.3424C1.27068 13.6841 1.85774 13.9271 2.6509 14.0876C3.44627 14.2486 4.48291 14.3333 5.83343 14.3333V13.8333ZM0.500092 10.8333H1.00009C1.00009 10.2658 1.41434 9.6501 2.30732 9.1478C3.18462 8.65432 4.43027 8.33333 5.83343 8.33333V7.83333V7.33333C4.29106 7.33333 2.87004 7.68392 1.81706 8.27622C0.779747 8.85971 9.15527e-05 9.74404 9.15527e-05 10.8333H0.500092ZM5.83343 7.83333V8.33333C6.50464 8.33333 7.14246 8.40687 7.72242 8.53892L7.83343 8.0514L7.94443 7.56388C7.28915 7.41468 6.57675 7.33333 5.83343 7.33333V7.83333ZM11.0379 12.1667L10.5618 12.014C10.4574 12.3396 10.2317 12.6534 9.56428 12.9018C8.86228 13.1632 7.71299 13.3333 5.83343 13.3333V13.8333V14.3333C7.74549 14.3333 9.04003 14.1641 9.91317 13.839C10.8209 13.5011 11.3016 12.9816 11.514 12.3194L11.0379 12.1667ZM12.5001 9.83333H12.0001C12.0001 11.0299 11.03 12 9.83343 12V12.5V13C11.5823 13 13.0001 11.5822 13.0001 9.83333H12.5001ZM9.83343 12.5V12C8.63681 12 7.66676 11.0299 7.66676 9.83333H7.16676H6.66676C6.66676 11.5822 8.08452 13 9.83343 13V12.5ZM7.16676 9.83333H7.66676C7.66676 8.63672 8.63681 7.66667 9.83343 7.66667V7.16667V6.66667C8.08452 6.66667 6.66676 8.08443 6.66676 9.83333H7.16676ZM9.83343 7.16667V7.66667C11.03 7.66667 12.0001 8.63672 12.0001 9.83333H12.5001H13.0001C13.0001 8.08443 11.5823 6.66667 9.83343 6.66667V7.16667ZM9.16676 9.83333V10.3333H10.5001V9.83333V9.33333H9.16676V9.83333Z" fill="#626060"/>
</svg>
