
<svg width="32" height="32" viewBox="0 0 32 32" fill="none" xmlns="http://www.w3.org/2000/svg">
<rect x="0.25" y="0.25" width="31.5" height="31.5" rx="15.75" fill="#F9F9F9"/>
<rect x="0.25" y="0.25" width="31.5" height="31.5" rx="15.75" stroke="#D6D6D6" stroke-width="0.5"/>
<path d="M18.3373 13.8636C18.2776 13.3598 18.0357 12.9688 17.6114 12.6903C17.1872 12.4119 16.6668 12.2727 16.0503 12.2727C15.5996 12.2727 15.2052 12.3456 14.8671 12.4915C14.5323 12.6373 14.2705 12.8378 14.0816 13.093C13.896 13.3482 13.8032 13.6383 13.8032 13.9631C13.8032 14.2348 13.8678 14.4685 13.9971 14.6641C14.1296 14.8563 14.2987 15.017 14.5042 15.1463C14.7097 15.2723 14.9251 15.3767 15.1505 15.4595C15.3759 15.5391 15.583 15.6037 15.7719 15.6534L16.806 15.9318C17.0712 16.0014 17.3662 16.0975 17.691 16.2202C18.0191 16.3428 18.3323 16.5102 18.6306 16.7223C18.9322 16.9311 19.1808 17.1996 19.3763 17.5277C19.5719 17.8558 19.6697 18.2585 19.6697 18.7358C19.6697 19.286 19.5255 19.7831 19.2371 20.2273C18.9521 20.6714 18.5345 21.0244 17.9843 21.2862C17.4374 21.5481 16.7729 21.679 15.9907 21.679C15.2615 21.679 14.6301 21.5613 14.0965 21.326C13.5662 21.0907 13.1486 20.7625 12.8437 20.3416C12.5421 19.9207 12.3714 19.4318 12.3316 18.875H13.6043C13.6375 19.2595 13.7667 19.5777 13.9921 19.8295C14.2208 20.0781 14.5091 20.2637 14.8572 20.3864C15.2085 20.5057 15.5863 20.5653 15.9907 20.5653C16.4613 20.5653 16.8839 20.4891 17.2584 20.3366C17.633 20.1809 17.9296 19.9654 18.1483 19.6903C18.3671 19.4119 18.4765 19.0871 18.4765 18.7159C18.4765 18.3778 18.382 18.1027 18.1931 17.8906C18.0042 17.6785 17.7556 17.5062 17.4474 17.3736C17.1391 17.241 16.806 17.125 16.4481 17.0256L15.1952 16.6676C14.3998 16.4389 13.77 16.1125 13.306 15.6882C12.842 15.264 12.61 14.7088 12.61 14.0227C12.61 13.4527 12.7641 12.9555 13.0724 12.5312C13.3839 12.1037 13.8015 11.7723 14.3252 11.5369C14.8522 11.2983 15.4405 11.179 16.0901 11.179C16.7464 11.179 17.3297 11.2966 17.8401 11.532C18.3505 11.764 18.7549 12.0821 19.0532 12.4865C19.3548 12.8909 19.5139 13.3499 19.5305 13.8636H18.3373Z" fill="#424242"/>
</svg>
