<svg width="16" height="18" viewBox="0 0 16 18" fill="none" xmlns="http://www.w3.org/2000/svg">
<path d="M13.6235 6.92464V6.33747C13.6235 3.11352 11.1055 0.5 7.99927 0.5C4.89307 0.5 2.37499 3.11352 2.37499 6.33747V6.92464C2.37499 7.6293 2.17403 8.31819 1.79743 8.9045L0.874567 10.3413C0.0316205 11.6536 0.67514 13.4374 2.14124 13.8524C5.97655 14.9381 10.022 14.9381 13.8573 13.8524C15.3234 13.4374 15.9669 11.6536 15.124 10.3413L14.2011 8.9045C13.8245 8.31819 13.6235 7.6293 13.6235 6.92464Z" fill="#96BFFF"/>
<path d="M14.2011 8.9045L13.7804 9.17472L13.7804 9.17472L14.2011 8.9045ZM15.124 10.3413L15.5447 10.0711L15.5447 10.0711L15.124 10.3413ZM0.874567 10.3413L0.453875 10.0711L0.453874 10.0711L0.874567 10.3413ZM1.79743 8.9045L2.21812 9.17472L2.21812 9.17472L1.79743 8.9045ZM13.8573 13.8524L13.7211 13.3713L13.7211 13.3713L13.8573 13.8524ZM2.14124 13.8524L2.27742 13.3713L2.27742 13.3713L2.14124 13.8524ZM4.71747 14.4912C4.62056 14.2326 4.33238 14.1016 4.0738 14.1985C3.81522 14.2954 3.68416 14.5836 3.78107 14.8421L4.24927 14.6667L4.71747 14.4912ZM12.2175 14.8421C12.3144 14.5836 12.1833 14.2954 11.9247 14.1985C11.6662 14.1016 11.378 14.2326 11.2811 14.4912L11.7493 14.6667L12.2175 14.8421ZM13.6235 6.33747H13.1235V6.92464H13.6235H14.1235V6.33747H13.6235ZM14.2011 8.9045L13.7804 9.17472L14.7033 10.6115L15.124 10.3413L15.5447 10.0711L14.6218 8.63428L14.2011 8.9045ZM0.874567 10.3413L1.29526 10.6115L2.21812 9.17472L1.79743 8.9045L1.37674 8.63428L0.453875 10.0711L0.874567 10.3413ZM2.37499 6.92464H2.87499V6.33747H2.37499H1.87499V6.92464H2.37499ZM13.8573 13.8524L13.7211 13.3713C9.97484 14.4318 6.0237 14.4318 2.27742 13.3713L2.14124 13.8524L2.00505 14.3335C5.92941 15.4444 10.0691 15.4444 13.9935 14.3335L13.8573 13.8524ZM1.79743 8.9045L2.21812 9.17472C2.64712 8.50684 2.87499 7.72397 2.87499 6.92464H2.37499H1.87499C1.87499 7.53463 1.70095 8.12954 1.37674 8.63428L1.79743 8.9045ZM13.6235 6.92464H13.1235C13.1235 7.72397 13.3514 8.50684 13.7804 9.17472L14.2011 8.9045L14.6218 8.63428C14.2976 8.12954 14.1235 7.53463 14.1235 6.92464H13.6235ZM0.874567 10.3413L0.453874 10.0711C-0.560895 11.6509 0.199065 13.8223 2.00505 14.3335L2.14124 13.8524L2.27742 13.3713C1.15121 13.0525 0.624136 11.6563 1.29526 10.6115L0.874567 10.3413ZM15.124 10.3413L14.7033 10.6115C15.3744 11.6563 14.8473 13.0525 13.7211 13.3713L13.8573 13.8524L13.9935 14.3335C15.7995 13.8223 16.5594 11.6509 15.5447 10.0711L15.124 10.3413ZM7.99927 0.5V1C10.812 1 13.1235 3.37197 13.1235 6.33747H13.6235H14.1235C14.1235 2.85508 11.399 0 7.99927 0V0.5ZM7.99927 0.5V0C4.59955 0 1.87499 2.85508 1.87499 6.33747H2.37499H2.87499C2.87499 3.37197 5.18658 1 7.99927 1V0.5ZM7.99927 3.83333H7.49927V7.16667H7.99927H8.49927V3.83333H7.99927ZM4.24927 14.6667L3.78107 14.8421C4.4029 16.5014 6.06768 17.6667 7.99927 17.6667V17.1667V16.6667C6.46828 16.6667 5.18734 15.745 4.71747 14.4912L4.24927 14.6667ZM7.99927 17.1667V17.6667C9.93085 17.6667 11.5956 16.5014 12.2175 14.8421L11.7493 14.6667L11.2811 14.4912C10.8112 15.745 9.53026 16.6667 7.99927 16.6667V17.1667Z" fill="#424242"/>
</svg>
