<svg width="20" height="20" viewBox="0 0 20 20" fill="none" xmlns="http://www.w3.org/2000/svg">
<path d="M2.08333 5.41634C2.08333 3.84499 2.08333 3.05932 2.57149 2.57116C3.05964 2.08301 3.84532 2.08301 5.41667 2.08301C6.98802 2.08301 7.77369 2.08301 8.26185 2.57116C8.75 3.05932 8.75 3.84499 8.75 5.41634C8.75 6.98769 8.75 7.77336 8.26185 8.26152C7.77369 8.74967 6.98802 8.74967 5.41667 8.74967C3.84532 8.74967 3.05964 8.74967 2.57149 8.26152C2.08333 7.77336 2.08333 6.98769 2.08333 5.41634Z" fill="#F2F7FF"/>
<path d="M11.25 14.583C11.25 13.0117 11.25 12.226 11.7382 11.7378C12.2263 11.2497 13.012 11.2497 14.5833 11.2497C16.1547 11.2497 16.9404 11.2497 17.4285 11.7378C17.9167 12.226 17.9167 13.0117 17.9167 14.583C17.9167 16.1544 17.9167 16.94 17.4285 17.4282C16.9404 17.9163 16.1547 17.9163 14.5833 17.9163C13.012 17.9163 12.2263 17.9163 11.7382 17.4282C11.25 16.94 11.25 16.1544 11.25 14.583Z" fill="#F2F7FF"/>
<path d="M2.08333 14.583C2.08333 13.0117 2.08333 12.226 2.57149 11.7378C3.05964 11.2497 3.84532 11.2497 5.41667 11.2497C6.98802 11.2497 7.77369 11.2497 8.26185 11.7378C8.75 12.226 8.75 13.0117 8.75 14.583C8.75 16.1544 8.75 16.94 8.26185 17.4282C7.77369 17.9163 6.98802 17.9163 5.41667 17.9163C3.84532 17.9163 3.05964 17.9163 2.57149 17.4282C2.08333 16.94 2.08333 16.1544 2.08333 14.583Z" fill="#F2F7FF"/>
<path d="M11.25 5.41634C11.25 3.84499 11.25 3.05932 11.7382 2.57116C12.2263 2.08301 13.012 2.08301 14.5833 2.08301C16.1547 2.08301 16.9404 2.08301 17.4285 2.57116C17.9167 3.05932 17.9167 3.84499 17.9167 5.41634C17.9167 6.98769 17.9167 7.77336 17.4285 8.26152C16.9404 8.74967 16.1547 8.74967 14.5833 8.74967C13.012 8.74967 12.2263 8.74967 11.7382 8.26152C11.25 7.77336 11.25 6.98769 11.25 5.41634Z" fill="#F2F7FF"/>
<path d="M2.08333 5.41634C2.08333 3.84499 2.08333 3.05932 2.57149 2.57116C3.05964 2.08301 3.84532 2.08301 5.41667 2.08301C6.98802 2.08301 7.77369 2.08301 8.26185 2.57116C8.75 3.05932 8.75 3.84499 8.75 5.41634C8.75 6.98769 8.75 7.77336 8.26185 8.26152C7.77369 8.74967 6.98802 8.74967 5.41667 8.74967C3.84532 8.74967 3.05964 8.74967 2.57149 8.26152C2.08333 7.77336 2.08333 6.98769 2.08333 5.41634Z" stroke="#96BFFF"/>
<path d="M11.25 14.583C11.25 13.0117 11.25 12.226 11.7382 11.7378C12.2263 11.2497 13.012 11.2497 14.5833 11.2497C16.1547 11.2497 16.9404 11.2497 17.4285 11.7378C17.9167 12.226 17.9167 13.0117 17.9167 14.583C17.9167 16.1544 17.9167 16.94 17.4285 17.4282C16.9404 17.9163 16.1547 17.9163 14.5833 17.9163C13.012 17.9163 12.2263 17.9163 11.7382 17.4282C11.25 16.94 11.25 16.1544 11.25 14.583Z" stroke="#96BFFF"/>
<path d="M2.08333 14.583C2.08333 13.0117 2.08333 12.226 2.57149 11.7378C3.05964 11.2497 3.84532 11.2497 5.41667 11.2497C6.98802 11.2497 7.77369 11.2497 8.26185 11.7378C8.75 12.226 8.75 13.0117 8.75 14.583C8.75 16.1544 8.75 16.94 8.26185 17.4282C7.77369 17.9163 6.98802 17.9163 5.41667 17.9163C3.84532 17.9163 3.05964 17.9163 2.57149 17.4282C2.08333 16.94 2.08333 16.1544 2.08333 14.583Z" stroke="#96BFFF"/>
<path d="M11.25 5.41634C11.25 3.84499 11.25 3.05932 11.7382 2.57116C12.2263 2.08301 13.012 2.08301 14.5833 2.08301C16.1547 2.08301 16.9404 2.08301 17.4285 2.57116C17.9167 3.05932 17.9167 3.84499 17.9167 5.41634C17.9167 6.98769 17.9167 7.77336 17.4285 8.26152C16.9404 8.74967 16.1547 8.74967 14.5833 8.74967C13.012 8.74967 12.2263 8.74967 11.7382 8.26152C11.25 7.77336 11.25 6.98769 11.25 5.41634Z" stroke="#96BFFF"/>
</svg>
