<svg width="20" height="20" viewBox="0 0 20 20" fill="none" xmlns="http://www.w3.org/2000/svg">
<path d="M18.3333 13.3337C18.3333 14.7144 17.214 15.8337 15.8333 15.8337C14.4526 15.8337 13.3333 14.7144 13.3333 13.3337C13.3333 11.9529 14.4526 10.8337 15.8333 10.8337C17.214 10.8337 18.3333 11.9529 18.3333 13.3337Z" fill="#F2F7FF"/>
<path d="M16.1867 15.9691C16.2615 15.7033 16.1067 15.4272 15.8409 15.3524C15.575 15.2776 15.2989 15.4325 15.2241 15.6983L15.7054 15.8337L16.1867 15.9691ZM4.52381 3.00033C4.79995 3.00033 5.02381 2.77647 5.02381 2.50033C5.02381 2.22418 4.79995 2.00033 4.52381 2.00033V2.50033V3.00033ZM10.2381 2.00033C9.96195 2.00033 9.7381 2.22418 9.7381 2.50033C9.7381 2.77647 9.96195 3.00033 10.2381 3.00033V2.50033V2.00033ZM13.0855 4.78011L12.5875 4.82415L12.5875 4.82416L13.0855 4.78011ZM10.8155 2.51004L10.7714 3.0081L10.7714 3.0081L10.8155 2.51004ZM3.94645 2.51004L3.90241 2.01199L3.90241 2.01199L3.94645 2.51004ZM1.67638 4.78011L2.17444 4.82415L2.17444 4.82415L1.67638 4.78011ZM10.5 1.66699C10.5 1.39085 10.2761 1.16699 10 1.16699C9.72386 1.16699 9.5 1.39085 9.5 1.66699H10H10.5ZM9.5 3.33366C9.5 3.6098 9.72386 3.83366 10 3.83366C10.2761 3.83366 10.5 3.6098 10.5 3.33366H10H9.5ZM5.5 1.66699C5.5 1.39085 5.27614 1.16699 5 1.16699C4.72386 1.16699 4.5 1.39085 4.5 1.66699H5H5.5ZM4.5 3.33366C4.5 3.6098 4.72386 3.83366 5 3.83366C5.27614 3.83366 5.5 3.6098 5.5 3.33366H5H4.5ZM7.5 11.8631H7V14.167H7.5H8V11.8631H7.5ZM11.6667 18.3337V18.8337H12.402V18.3337V17.8337H11.6667V18.3337ZM7.5 14.167H7C7 16.7444 9.08934 18.8337 11.6667 18.8337V18.3337V17.8337C9.64162 17.8337 8 16.1921 8 14.167H7.5ZM12.402 18.3337V18.8337C14.2041 18.8337 15.7218 17.6216 16.1867 15.9691L15.7054 15.8337L15.2241 15.6983C14.8773 16.9309 13.7444 17.8337 12.402 17.8337V18.3337ZM4.52381 2.50033V2.00033H4.44741V2.50033V3.00033H4.52381V2.50033ZM1.66667 5.28107H1.16667V6.02974H1.66667H2.16667V5.28107H1.66667ZM13.0952 6.26783H13.5952V5.28107H13.0952H12.5952V6.26783H13.0952ZM10.3145 2.50033V2.00033H10.2381V2.50033V3.00033H10.3145V2.50033ZM13.0952 5.28107H13.5952C13.5952 5.03105 13.5957 4.87348 13.5836 4.73607L13.0855 4.78011L12.5875 4.82416C12.5947 4.90653 12.5952 5.00968 12.5952 5.28107H13.0952ZM10.3145 2.50033V3.00033C10.5859 3.00033 10.689 3.00082 10.7714 3.0081L10.8155 2.51004L10.8595 2.01199C10.7221 1.99984 10.5645 2.00033 10.3145 2.00033V2.50033ZM13.0855 4.78011L13.5836 4.73607C13.4555 3.28795 12.3076 2.14004 10.8595 2.01199L10.8155 2.51004L10.7714 3.0081C11.7368 3.09347 12.5021 3.85874 12.5875 4.82415L13.0855 4.78011ZM13.0952 6.26783H12.5952C12.5952 9.08186 10.314 11.3631 7.5 11.3631V11.8631V12.3631C10.8663 12.3631 13.5952 9.63413 13.5952 6.26783H13.0952ZM1.66667 6.02974H1.16667C1.16667 9.52753 4.00219 12.3631 7.5 12.3631V11.8631V11.3631C4.55449 11.3631 2.16667 8.97526 2.16667 6.02974H1.66667ZM4.44741 2.50033V2.00033C4.19738 2.00033 4.03982 1.99984 3.90241 2.01199L3.94645 2.51004L3.9905 3.0081C4.07287 3.00082 4.17602 3.00033 4.44741 3.00033V2.50033ZM1.66667 5.28107H2.16667C2.16667 5.00968 2.16716 4.90653 2.17444 4.82415L1.67638 4.78011L1.17833 4.73607C1.16618 4.87348 1.16667 5.03104 1.16667 5.28107H1.66667ZM3.94645 2.51004L3.90241 2.01199C2.45429 2.14004 1.30638 3.28795 1.17833 4.73607L1.67638 4.78011L2.17444 4.82415C2.25981 3.85874 3.02508 3.09347 3.9905 3.0081L3.94645 2.51004ZM18.3333 13.3337H17.8333C17.8333 14.4382 16.9379 15.3337 15.8333 15.3337V15.8337V16.3337C17.4902 16.3337 18.8333 14.9905 18.8333 13.3337H18.3333ZM15.8333 15.8337V15.3337C14.7288 15.3337 13.8333 14.4382 13.8333 13.3337H13.3333H12.8333C12.8333 14.9905 14.1765 16.3337 15.8333 16.3337V15.8337ZM13.3333 13.3337H13.8333C13.8333 12.2291 14.7288 11.3337 15.8333 11.3337V10.8337V10.3337C14.1765 10.3337 12.8333 11.6768 12.8333 13.3337H13.3333ZM15.8333 10.8337V11.3337C16.9379 11.3337 17.8333 12.2291 17.8333 13.3337H18.3333H18.8333C18.8333 11.6768 17.4902 10.3337 15.8333 10.3337V10.8337ZM10 1.66699H9.5V3.33366H10H10.5V1.66699H10ZM5 1.66699H4.5V3.33366H5H5.5V1.66699H5Z" fill="#626060"/>
</svg>
