<svg width="20" height="20" viewBox="0 0 20 20" fill="none" xmlns="http://www.w3.org/2000/svg">
<path d="M10 18.3337H14.1667V5.00033C14.1667 3.42898 14.1667 2.6433 13.6785 2.15515C13.1904 1.66699 12.4047 1.66699 10.8333 1.66699H9.16667C7.59532 1.66699 6.80964 1.66699 6.32149 2.15515C5.83333 2.6433 5.83333 3.42898 5.83333 5.00033V18.3337H10Z" fill="#F2F7FF"/>
<path d="M18.3333 18.8337C18.6095 18.8337 18.8333 18.6098 18.8333 18.3337C18.8333 18.0575 18.6095 17.8337 18.3333 17.8337V18.3337V18.8337ZM1.66667 17.8337C1.39052 17.8337 1.16667 18.0575 1.16667 18.3337C1.16667 18.6098 1.39052 18.8337 1.66667 18.8337V18.3337V17.8337ZM13.6785 2.15515L13.325 2.5087L13.325 2.5087L13.6785 2.15515ZM16.7593 4.44788L16.4815 4.86361L16.4815 4.86361L16.7593 4.44788ZM17.2191 4.90771L17.6349 4.62992L17.6348 4.62992L17.2191 4.90771ZM3.24072 4.44788L3.5185 4.86361L3.5185 4.86361L3.24072 4.44788ZM2.78088 4.90771L3.19662 5.18549L3.19662 5.18549L2.78088 4.90771ZM10.5 15.8337C10.5 15.5575 10.2761 15.3337 10 15.3337C9.72386 15.3337 9.5 15.5575 9.5 15.8337H10H10.5ZM9.5 10.0003C9.5 10.2765 9.72386 10.5003 10 10.5003C10.2761 10.5003 10.5 10.2765 10.5 10.0003H10H9.5ZM10.5 6.66699C10.5 6.39085 10.2761 6.16699 10 6.16699C9.72386 6.16699 9.5 6.39085 9.5 6.66699H10H10.5ZM11.6667 8.83366C11.9428 8.83366 12.1667 8.6098 12.1667 8.33366C12.1667 8.05752 11.9428 7.83366 11.6667 7.83366V8.33366V8.83366ZM8.33333 7.83366C8.05719 7.83366 7.83333 8.05752 7.83333 8.33366C7.83333 8.6098 8.05719 8.83366 8.33333 8.83366V8.33366V7.83366ZM18.3333 18.3337V17.8337H17.5V18.3337V18.8337H18.3333V18.3337ZM17.5 18.3337V17.8337H14.1667V18.3337V18.8337H17.5V18.3337ZM14.1667 18.3337V17.8337H10V18.3337V18.8337H14.1667V18.3337ZM10 18.3337V17.8337H5.83333V18.3337V18.8337H10V18.3337ZM5.83333 18.3337V17.8337H2.5V18.3337V18.8337H5.83333V18.3337ZM2.5 18.3337V17.8337H1.66667V18.3337V18.8337H2.5V18.3337ZM9.16667 1.66699V2.16699H10.8333V1.66699V1.16699H9.16667V1.66699ZM14.1667 5.00033H13.6667V18.3337H14.1667H14.6667V5.00033H14.1667ZM5.83333 18.3337H6.33333V5.00033H5.83333H5.33333V18.3337H5.83333ZM10.8333 1.66699V2.16699C11.6331 2.16699 12.1827 2.16805 12.5955 2.22355C12.9939 2.27712 13.1893 2.37301 13.325 2.5087L13.6785 2.15515L14.0321 1.80159C13.6796 1.44913 13.238 1.30094 12.7287 1.23247C12.2338 1.16593 11.6049 1.16699 10.8333 1.16699V1.66699ZM14.1667 5.00033H14.6667C14.6667 4.22879 14.6677 3.59983 14.6012 3.10492C14.5327 2.59561 14.3845 2.15406 14.0321 1.80159L13.6785 2.15515L13.325 2.5087C13.4607 2.64439 13.5565 2.83975 13.6101 3.23816C13.6656 3.65096 13.6667 4.20052 13.6667 5.00033H14.1667ZM9.16667 1.66699V1.16699C8.39513 1.16699 7.76617 1.16593 7.27126 1.23247C6.76195 1.30094 6.3204 1.44913 5.96793 1.80159L6.32149 2.15515L6.67504 2.5087C6.81073 2.37301 7.00609 2.27712 7.4045 2.22355C7.8173 2.16805 8.36686 2.16699 9.16667 2.16699V1.66699ZM5.83333 5.00033H6.33333C6.33333 4.20052 6.33439 3.65096 6.38989 3.23816C6.44346 2.83975 6.53935 2.64439 6.67504 2.5087L6.32149 2.15515L5.96793 1.80159C5.61547 2.15406 5.46728 2.59561 5.39881 3.10492C5.33227 3.59983 5.33333 4.22879 5.33333 5.00033H5.83333ZM17.5 7.08366H17V18.3337H17.5H18V7.08366H17.5ZM14.5833 4.16699V4.66699C15.1789 4.66699 15.588 4.6676 15.902 4.69954C16.2076 4.73062 16.3672 4.78721 16.4815 4.86361L16.7593 4.44788L17.0371 4.03214C16.731 3.82766 16.3878 3.7438 16.0032 3.70467C15.6268 3.66639 15.1581 3.66699 14.5833 3.66699V4.16699ZM17.5 7.08366H18C18 6.50887 18.0006 6.04015 17.9623 5.66383C17.9232 5.27915 17.8393 4.93596 17.6349 4.62992L17.2191 4.90771L16.8034 5.18549C16.8798 5.29983 16.9364 5.45942 16.9675 5.76503C16.9994 6.079 17 6.48806 17 7.08366H17.5ZM16.7593 4.44788L16.4815 4.86361C16.6089 4.94873 16.7183 5.0581 16.8034 5.18549L17.2191 4.90771L17.6348 4.62992C17.4768 4.39335 17.2736 4.19022 17.0371 4.03214L16.7593 4.44788ZM2.5 7.08366H2V18.3337H2.5H3V7.08366H2.5ZM5.41667 4.16699V3.66699C4.84188 3.66699 4.37315 3.66639 3.99683 3.70467C3.61216 3.7438 3.26897 3.82766 2.96293 4.03214L3.24072 4.44788L3.5185 4.86361C3.63284 4.78721 3.79243 4.73062 4.09804 4.69954C4.412 4.6676 4.82107 4.66699 5.41667 4.66699V4.16699ZM2.5 7.08366H3C3 6.48806 3.0006 6.079 3.03254 5.76503C3.06363 5.45942 3.12022 5.29983 3.19662 5.18549L2.78088 4.90771L2.36515 4.62992C2.16066 4.93596 2.07681 5.27915 2.03768 5.66383C1.99939 6.04015 2 6.50887 2 7.08366H2.5ZM3.24072 4.44788L2.96293 4.03214C2.72635 4.19022 2.52323 4.39334 2.36515 4.62992L2.78088 4.90771L3.19662 5.18549C3.28174 5.05811 3.39111 4.94873 3.5185 4.86361L3.24072 4.44788ZM10 18.3337H10.5V15.8337H10H9.5V18.3337H10ZM10 10.0003H10.5V8.33366H10H9.5V10.0003H10ZM10 8.33366H10.5V6.66699H10H9.5V8.33366H10ZM11.6667 8.33366V7.83366H10V8.33366V8.83366H11.6667V8.33366ZM10 8.33366V7.83366H8.33333V8.33366V8.83366H10V8.33366Z" fill="#626060"/>
</svg>
