<svg width="20" height="20" viewBox="0 0 20 20" fill="none" xmlns="http://www.w3.org/2000/svg">
<path d="M6.5359 3.16827C8.2265 2.16709 9.0718 1.6665 10 1.6665C10.9282 1.6665 11.7735 2.16709 13.4641 3.16827L14.0359 3.50688C15.7265 4.50806 16.5718 5.00865 17.0359 5.83317C17.5 6.65769 17.5 7.65887 17.5 9.66122V10.3385C17.5 12.3408 17.5 13.342 17.0359 14.1665C16.5718 14.991 15.7265 15.4916 14.0359 16.4928L13.4641 16.8314C11.7735 17.8326 10.9282 18.3332 10 18.3332C9.0718 18.3332 8.2265 17.8326 6.5359 16.8314L5.9641 16.4928C4.2735 15.4916 3.4282 14.991 2.9641 14.1665C2.5 13.342 2.5 12.3408 2.5 10.3385V9.66122C2.5 7.65887 2.5 6.65769 2.9641 5.83317C3.4282 5.00865 4.2735 4.50806 5.9641 3.50688L6.5359 3.16827Z" fill="#F2F7FF"/>
<path d="M12.5 9.99984C12.5 11.3805 11.3807 12.4998 10 12.4998C8.61929 12.4998 7.5 11.3805 7.5 9.99984C7.5 8.61913 8.61929 7.49984 10 7.49984C11.3807 7.49984 12.5 8.61913 12.5 9.99984Z" fill="#F2F7FF"/>
<path d="M5.9641 3.50688L6.21888 3.9371L6.21888 3.9371L5.9641 3.50688ZM5.9641 16.4928L5.70932 16.923L5.70933 16.923L5.9641 16.4928ZM13.4641 16.8314L13.7189 17.2616L13.7189 17.2616L13.4641 16.8314ZM6.5359 16.8314L6.79067 16.4012L6.79067 16.4012L6.5359 16.8314ZM10 18.3332L10 17.8332L10 18.3332ZM14.0359 16.4928L13.7811 16.0626L13.7811 16.0626L14.0359 16.4928ZM14.0359 3.50688L13.7811 3.9371L13.7811 3.9371L14.0359 3.50688ZM13.4641 3.16827L13.7189 2.73805L13.7189 2.73805L13.4641 3.16827ZM6.5359 3.16827L6.28112 2.73805L6.28112 2.73805L6.5359 3.16827ZM13.4641 3.16827L13.2093 3.59848L13.7811 3.9371L14.0359 3.50688L14.2907 3.07667L13.7189 2.73805L13.4641 3.16827ZM17.5 9.66122H17V10.3385H17.5H18V9.66122H17.5ZM14.0359 16.4928L13.7811 16.0626L13.2093 16.4012L13.4641 16.8314L13.7189 17.2616L14.2907 16.923L14.0359 16.4928ZM6.5359 16.8314L6.79067 16.4012L6.21888 16.0626L5.9641 16.4928L5.70933 16.923L6.28112 17.2616L6.5359 16.8314ZM2.5 10.3385H3V9.66122H2.5H2V10.3385H2.5ZM5.9641 3.50688L6.21888 3.9371L6.79067 3.59849L6.5359 3.16827L6.28112 2.73805L5.70932 3.07666L5.9641 3.50688ZM2.5 9.66122H3C3 8.65056 3.00053 7.9276 3.05572 7.35334C3.10991 6.78951 3.21404 6.40848 3.39982 6.07842L2.9641 5.83317L2.52838 5.58792C2.25006 6.08239 2.12215 6.61421 2.06031 7.25768C1.99947 7.89073 2 8.66953 2 9.66122H2.5ZM5.9641 3.50688L5.70932 3.07666C4.87245 3.57227 4.21331 3.96194 3.70801 4.33342C3.19346 4.71168 2.80708 5.09279 2.52838 5.58792L2.9641 5.83317L3.39982 6.07842C3.58523 5.74903 3.85354 5.46758 4.30032 5.13912C4.75634 4.80388 5.36516 4.44268 6.21888 3.9371L5.9641 3.50688ZM5.9641 16.4928L6.21888 16.0626C5.36516 15.557 4.75634 15.1958 4.30032 14.8606C3.85354 14.5321 3.58523 14.2506 3.39982 13.9212L2.9641 14.1665L2.52838 14.4118C2.80708 14.9069 3.19346 15.288 3.70801 15.6663C4.21331 16.0377 4.87245 16.4274 5.70932 16.923L5.9641 16.4928ZM2.5 10.3385H2C2 11.3301 1.99947 12.1089 2.06031 12.742C2.12215 13.3855 2.25006 13.9173 2.52838 14.4118L2.9641 14.1665L3.39982 13.9212C3.21404 13.5912 3.10991 13.2102 3.05572 12.6463C3.00053 12.0721 3 11.3491 3 10.3385H2.5ZM13.4641 16.8314L13.2093 16.4012C12.3555 16.9068 11.7463 17.2669 11.2355 17.5043C10.7347 17.737 10.3657 17.8332 10 17.8332L10 18.3332L10 18.8332C10.5625 18.8332 11.0803 18.6791 11.6568 18.4112C12.2234 18.1479 12.8821 17.7572 13.7189 17.2616L13.4641 16.8314ZM6.5359 16.8314L6.28112 17.2616C7.1179 17.7572 7.7766 18.1479 8.34316 18.4112C8.91974 18.6791 9.43745 18.8332 10 18.8332L10 18.3332L10 17.8332C9.63434 17.8332 9.2653 17.737 8.76454 17.5043C8.25374 17.2669 7.6445 16.9068 6.79067 16.4012L6.5359 16.8314ZM17.5 10.3385H17C17 11.3491 16.9995 12.0721 16.9443 12.6463C16.8901 13.2102 16.786 13.5912 16.6002 13.9212L17.0359 14.1665L17.4716 14.4118C17.7499 13.9173 17.8779 13.3855 17.9397 12.742C18.0005 12.1089 18 11.3301 18 10.3385H17.5ZM14.0359 16.4928L14.2907 16.923C15.1276 16.4274 15.7867 16.0377 16.292 15.6663C16.8065 15.288 17.1929 14.9069 17.4716 14.4118L17.0359 14.1665L16.6002 13.9212C16.4148 14.2506 16.1465 14.5321 15.6997 14.8606C15.2437 15.1958 14.6348 15.557 13.7811 16.0626L14.0359 16.4928ZM14.0359 3.50688L13.7811 3.9371C14.6348 4.44268 15.2437 4.80388 15.6997 5.13912C16.1465 5.46758 16.4148 5.74903 16.6002 6.07842L17.0359 5.83317L17.4716 5.58792C17.1929 5.09279 16.8065 4.71168 16.292 4.33342C15.7867 3.96194 15.1276 3.57227 14.2907 3.07666L14.0359 3.50688ZM17.5 9.66122H18C18 8.66953 18.0005 7.89073 17.9397 7.25768C17.8779 6.61421 17.7499 6.08239 17.4716 5.58792L17.0359 5.83317L16.6002 6.07842C16.786 6.40848 16.8901 6.78951 16.9443 7.35334C16.9995 7.9276 17 8.65056 17 9.66122H17.5ZM13.4641 3.16827L13.7189 2.73805C12.8821 2.2425 12.2234 1.85175 11.6568 1.5885C11.0803 1.32059 10.5625 1.1665 10 1.1665L10 1.6665L10 2.1665C10.3657 2.1665 10.7347 2.26271 11.2355 2.49539C11.7463 2.73273 12.3555 3.09285 13.2093 3.59848L13.4641 3.16827ZM6.5359 3.16827L6.79067 3.59849C7.6445 3.09285 8.25374 2.73273 8.76454 2.49539C9.2653 2.26271 9.63434 2.1665 10 2.1665L10 1.6665L10 1.1665C9.43745 1.1665 8.91974 1.32059 8.34316 1.5885C7.7766 1.85175 7.1179 2.2425 6.28112 2.73805L6.5359 3.16827ZM12.5 9.99984H12C12 11.1044 11.1046 11.9998 10 11.9998V12.4998V12.9998C11.6569 12.9998 13 11.6567 13 9.99984H12.5ZM10 12.4998V11.9998C8.89543 11.9998 8 11.1044 8 9.99984H7.5H7C7 11.6567 8.34315 12.9998 10 12.9998V12.4998ZM7.5 9.99984H8C8 8.89527 8.89543 7.99984 10 7.99984V7.49984V6.99984C8.34315 6.99984 7 8.34298 7 9.99984H7.5ZM10 7.49984V7.99984C11.1046 7.99984 12 8.89527 12 9.99984H12.5H13C13 8.34298 11.6569 6.99984 10 6.99984V7.49984Z" fill="#626060"/>
</svg>
